<svg id="svg" xmlns="http://www.w3.org/2000/svg" xmlns:xlink="http://www.w3.org/1999/xlink" width="400" height="400" viewBox="0, 0, 400,400"><g id="svgg"><path id="path0" d="M191.600 3.800 C 191.600 4.130,191.330 4.400,191.000 4.400 C 190.670 4.400,190.400 4.670,190.400 5.000 C 190.400 5.330,190.130 5.600,189.800 5.600 C 189.470 5.600,189.200 5.870,189.200 6.200 C 189.200 6.533,188.844 6.800,188.400 6.800 C 187.956 6.800,187.600 7.067,187.600 7.400 C 187.600 7.730,187.330 8.000,187.000 8.000 C 186.670 8.000,186.400 8.270,186.400 8.600 C 186.400 8.930,186.130 9.200,185.800 9.200 C 185.470 9.200,185.200 9.470,185.200 9.800 C 185.200 10.130,184.930 10.400,184.600 10.400 C 184.270 10.400,184.000 10.670,184.000 11.000 C 184.000 11.330,183.730 11.600,183.400 11.600 C 183.070 11.600,182.800 11.870,182.800 12.200 C 182.800 12.530,182.530 12.800,182.200 12.800 C 181.867 12.800,181.600 13.156,181.600 13.600 C 181.600 14.044,181.333 14.400,181.000 14.400 C 180.670 14.400,180.400 14.670,180.400 15.000 C 180.400 15.330,180.130 15.600,179.800 15.600 C 179.470 15.600,179.200 15.870,179.200 16.200 C 179.200 16.530,178.930 16.800,178.600 16.800 C 178.270 16.800,178.000 17.070,178.000 17.400 C 178.000 17.730,177.730 18.000,177.400 18.000 C 177.070 18.000,176.800 18.270,176.800 18.600 C 176.800 18.930,176.530 19.200,176.200 19.200 C 175.870 19.200,175.600 19.470,175.600 19.800 C 175.600 20.130,175.330 20.400,175.000 20.400 C 174.670 20.400,174.400 20.670,174.400 21.000 C 174.400 21.330,174.130 21.600,173.800 21.600 C 173.470 21.600,173.200 21.870,173.200 22.200 C 173.200 22.533,172.844 22.800,172.400 22.800 C 171.956 22.800,171.600 23.067,171.600 23.400 C 171.600 23.730,171.330 24.000,171.000 24.000 C 170.670 24.000,170.400 24.270,170.400 24.600 C 170.400 24.930,170.130 25.200,169.800 25.200 C 169.470 25.200,169.200 25.470,169.200 25.800 C 169.200 26.130,168.930 26.400,168.600 26.400 C 168.270 26.400,168.000 26.670,168.000 27.000 C 168.000 27.330,167.730 27.600,167.400 27.600 C 167.070 27.600,166.800 27.870,166.800 28.200 C 166.800 28.530,166.530 28.800,166.200 28.800 C 165.867 28.800,165.600 29.156,165.600 29.600 C 165.600 30.044,165.333 30.400,165.000 30.400 C 164.670 30.400,164.400 30.670,164.400 31.000 C 164.400 31.330,164.130 31.600,163.800 31.600 C 163.470 31.600,163.200 31.870,163.200 32.200 C 163.200 32.530,162.930 32.800,162.600 32.800 C 162.270 32.800,162.000 33.070,162.000 33.400 C 162.000 33.730,161.730 34.000,161.400 34.000 C 161.070 34.000,160.800 34.270,160.800 34.600 C 160.800 34.930,160.530 35.200,160.200 35.200 C 159.870 35.200,159.600 35.470,159.600 35.800 C 159.600 36.130,159.330 36.400,159.000 36.400 C 158.670 36.400,158.400 36.670,158.400 37.000 C 158.400 37.330,158.130 37.600,157.800 37.600 C 157.470 37.600,157.200 37.870,157.200 38.200 C 157.200 38.533,156.844 38.800,156.400 38.800 C 155.956 38.800,155.600 39.067,155.600 39.400 C 155.600 39.730,155.330 40.000,155.000 40.000 C 154.670 40.000,154.400 40.270,154.400 40.600 C 154.400 40.930,154.130 41.200,153.800 41.200 C 153.470 41.200,153.200 41.470,153.200 41.800 C 153.200 42.130,152.930 42.400,152.600 42.400 C 152.270 42.400,152.000 42.670,152.000 43.000 C 152.000 43.330,151.730 43.600,151.400 43.600 C 151.070 43.600,150.800 43.870,150.800 44.200 C 150.800 44.530,150.530 44.800,150.200 44.800 C 149.867 44.800,149.600 45.156,149.600 45.600 C 149.600 46.044,149.333 46.400,149.000 46.400 C 148.670 46.400,148.400 46.670,148.400 47.000 C 148.400 47.330,148.130 47.600,147.800 47.600 C 147.470 47.600,147.200 47.870,147.200 48.200 C 147.200 48.530,146.930 48.800,146.600 48.800 C 146.270 48.800,146.000 49.070,146.000 49.400 C 146.000 49.730,145.730 50.000,145.400 50.000 C 145.070 50.000,144.800 50.270,144.800 50.600 C 144.800 50.930,144.530 51.200,144.200 51.200 C 143.870 51.200,143.600 51.470,143.600 51.800 C 143.600 52.130,143.330 52.400,143.000 52.400 C 142.670 52.400,142.400 52.670,142.400 53.000 C 142.400 53.330,142.130 53.600,141.800 53.600 C 141.470 53.600,141.200 53.870,141.200 54.200 C 141.200 54.533,140.844 54.800,140.400 54.800 C 139.960 54.800,139.600 54.980,139.600 55.200 C 139.600 55.719,138.119 57.200,137.600 57.200 C 137.380 57.200,137.200 57.374,137.200 57.587 C 137.200 58.090,134.490 60.800,133.987 60.800 C 133.774 60.800,133.600 61.160,133.600 61.600 C 133.600 62.044,133.333 62.400,133.000 62.400 C 132.670 62.400,132.400 62.670,132.400 63.000 C 132.400 63.330,132.130 63.600,131.800 63.600 C 131.470 63.600,131.200 63.870,131.200 64.200 C 131.200 64.530,130.930 64.800,130.600 64.800 C 130.270 64.800,130.000 65.070,130.000 65.400 C 130.000 65.730,129.730 66.000,129.400 66.000 C 129.070 66.000,128.800 66.270,128.800 66.600 C 128.800 66.930,128.530 67.200,128.200 67.200 C 127.870 67.200,127.600 67.470,127.600 67.800 C 127.600 68.130,127.330 68.400,127.000 68.400 C 126.670 68.400,126.400 68.670,126.400 69.000 C 126.400 69.330,126.130 69.600,125.800 69.600 C 125.470 69.600,125.200 69.870,125.200 70.200 C 125.200 70.530,124.967 70.800,124.681 70.800 C 124.396 70.800,123.721 71.332,123.181 71.983 C 122.642 72.634,121.975 73.174,121.700 73.183 C 121.425 73.192,121.192 73.425,121.183 73.700 C 121.174 73.975,120.634 74.642,119.983 75.181 C 119.332 75.721,118.800 76.396,118.800 76.681 C 118.800 76.967,118.530 77.200,118.200 77.200 C 117.870 77.200,117.600 77.470,117.600 77.800 C 117.600 78.130,117.330 78.400,117.000 78.400 C 116.670 78.400,116.400 78.670,116.400 79.000 C 116.400 79.330,116.130 79.600,115.800 79.600 C 115.470 79.600,115.200 79.870,115.200 80.200 C 115.200 80.530,114.930 80.800,114.600 80.800 C 114.270 80.800,114.000 81.070,114.000 81.400 C 114.000 81.730,113.730 82.000,113.400 82.000 C 113.070 82.000,112.800 82.270,112.800 82.600 C 112.800 82.930,112.530 83.200,112.200 83.200 C 111.870 83.200,111.600 83.470,111.600 83.800 C 111.600 84.130,111.330 84.400,111.000 84.400 C 110.670 84.400,110.400 84.670,110.400 85.000 C 110.400 85.330,110.130 85.600,109.800 85.600 C 109.470 85.600,109.200 85.870,109.200 86.200 C 109.200 86.533,108.844 86.800,108.400 86.800 C 107.960 86.800,107.600 86.980,107.600 87.200 C 107.600 87.719,106.119 89.200,105.600 89.200 C 105.380 89.200,105.200 89.374,105.200 89.587 C 105.200 90.090,102.490 92.800,101.987 92.800 C 101.774 92.800,101.600 93.160,101.600 93.600 C 101.600 94.044,101.333 94.400,101.000 94.400 C 100.670 94.400,100.400 94.670,100.400 95.000 C 100.400 95.330,100.130 95.600,99.800 95.600 C 99.470 95.600,99.200 95.870,99.200 96.200 C 99.200 96.530,98.930 96.800,98.600 96.800 C 98.270 96.800,98.000 97.070,98.000 97.400 C 98.000 97.730,97.730 98.000,97.400 98.000 C 97.070 98.000,96.800 98.270,96.800 98.600 C 96.800 98.930,96.530 99.200,96.200 99.200 C 95.870 99.200,95.600 99.470,95.600 99.800 C 95.600 100.130,95.330 100.400,95.000 100.400 C 94.670 100.400,94.400 100.670,94.400 101.000 C 94.400 101.330,94.130 101.600,93.800 101.600 C 93.470 101.600,93.200 101.870,93.200 102.200 C 93.200 102.533,92.844 102.800,92.400 102.800 C 91.960 102.800,91.600 102.980,91.600 103.200 C 91.600 103.719,90.119 105.200,89.600 105.200 C 89.380 105.200,89.200 105.374,89.200 105.587 C 89.200 105.799,88.564 106.609,87.787 107.387 C 87.009 108.164,86.199 108.800,85.987 108.800 C 85.774 108.800,85.600 109.160,85.600 109.600 C 85.600 110.044,85.333 110.400,85.000 110.400 C 84.670 110.400,84.400 110.670,84.400 111.000 C 84.400 111.330,84.130 111.600,83.800 111.600 C 83.470 111.600,83.200 111.870,83.200 112.200 C 83.200 112.530,82.930 112.800,82.600 112.800 C 82.270 112.800,82.000 113.070,82.000 113.400 C 82.000 113.730,81.730 114.000,81.400 114.000 C 81.070 114.000,80.800 114.270,80.800 114.600 C 80.800 114.930,80.530 115.200,80.200 115.200 C 79.870 115.200,79.600 115.470,79.600 115.800 C 79.600 116.130,79.330 116.400,79.000 116.400 C 78.670 116.400,78.400 116.670,78.400 117.000 C 78.400 117.330,78.130 117.600,77.800 117.600 C 77.470 117.600,77.200 117.870,77.200 118.200 C 77.200 118.533,76.844 118.800,76.400 118.800 C 75.960 118.800,75.600 118.980,75.600 119.200 C 75.600 119.719,74.119 121.200,73.600 121.200 C 73.380 121.200,73.200 121.374,73.200 121.587 C 73.200 121.799,72.564 122.609,71.787 123.387 C 71.009 124.164,70.199 124.800,69.987 124.800 C 69.774 124.800,69.600 125.160,69.600 125.600 C 69.600 126.044,69.333 126.400,69.000 126.400 C 68.670 126.400,68.400 126.670,68.400 127.000 C 68.400 127.330,68.130 127.600,67.800 127.600 C 67.470 127.600,67.200 127.870,67.200 128.200 C 67.200 128.530,66.930 128.800,66.600 128.800 C 66.270 128.800,66.000 129.070,66.000 129.400 C 66.000 129.730,65.730 130.000,65.400 130.000 C 65.070 130.000,64.800 130.270,64.800 130.600 C 64.800 130.930,64.530 131.200,64.200 131.200 C 63.870 131.200,63.600 131.470,63.600 131.800 C 63.600 132.130,63.330 132.400,63.000 132.400 C 62.670 132.400,62.400 132.670,62.400 133.000 C 62.400 133.330,62.130 133.600,61.800 133.600 C 61.470 133.600,61.200 133.870,61.200 134.200 C 61.200 134.530,60.967 134.800,60.681 134.800 C 60.396 134.800,59.721 135.332,59.181 135.983 C 58.642 136.634,57.975 137.174,57.700 137.183 C 57.425 137.192,57.192 137.425,57.183 137.700 C 57.174 137.975,56.634 138.642,55.983 139.181 C 55.332 139.721,54.800 140.396,54.800 140.681 C 54.800 140.967,54.530 141.200,54.200 141.200 C 53.870 141.200,53.600 141.470,53.600 141.800 C 53.600 142.130,53.330 142.400,53.000 142.400 C 52.670 142.400,52.400 142.670,52.400 143.000 C 52.400 143.330,52.130 143.600,51.800 143.600 C 51.470 143.600,51.200 143.870,51.200 144.200 C 51.200 144.530,50.930 144.800,50.600 144.800 C 50.270 144.800,50.000 145.070,50.000 145.400 C 50.000 145.730,49.730 146.000,49.400 146.000 C 49.070 146.000,48.800 146.270,48.800 146.600 C 48.800 146.930,48.530 147.200,48.200 147.200 C 47.870 147.200,47.600 147.470,47.600 147.800 C 47.600 148.130,47.330 148.400,47.000 148.400 C 46.670 148.400,46.400 148.670,46.400 149.000 C 46.400 149.330,46.130 149.600,45.800 149.600 C 45.470 149.600,45.200 149.870,45.200 150.200 C 45.200 150.530,44.967 150.800,44.681 150.800 C 44.396 150.800,43.721 151.332,43.181 151.983 C 42.642 152.634,41.975 153.174,41.700 153.183 C 41.425 153.192,41.192 153.425,41.183 153.700 C 41.174 153.975,40.634 154.642,39.983 155.181 C 39.332 155.721,38.800 156.396,38.800 156.681 C 38.800 156.967,38.530 157.200,38.200 157.200 C 37.870 157.200,37.600 157.470,37.600 157.800 C 37.600 158.130,37.330 158.400,37.000 158.400 C 36.670 158.400,36.400 158.670,36.400 159.000 C 36.400 159.330,36.130 159.600,35.800 159.600 C 35.470 159.600,35.200 159.870,35.200 160.200 C 35.200 160.530,34.930 160.800,34.600 160.800 C 34.270 160.800,34.000 161.070,34.000 161.400 C 34.000 161.730,33.730 162.000,33.400 162.000 C 33.070 162.000,32.800 162.270,32.800 162.600 C 32.800 162.930,32.530 163.200,32.200 163.200 C 31.870 163.200,31.600 163.470,31.600 163.800 C 31.600 164.130,31.330 164.400,31.000 164.400 C 30.670 164.400,30.400 164.670,30.400 165.000 C 30.400 165.330,30.130 165.600,29.800 165.600 C 29.470 165.600,29.200 165.870,29.200 166.200 C 29.200 166.533,28.844 166.800,28.400 166.800 C 27.960 166.800,27.600 166.980,27.600 167.200 C 27.600 167.719,26.119 169.200,25.600 169.200 C 25.380 169.200,25.200 169.374,25.200 169.587 C 25.200 169.799,24.564 170.609,23.787 171.387 C 23.009 172.164,22.199 172.800,21.987 172.800 C 21.774 172.800,21.600 173.160,21.600 173.600 C 21.600 174.044,21.333 174.400,21.000 174.400 C 20.670 174.400,20.400 174.670,20.400 175.000 C 20.400 175.330,20.130 175.600,19.800 175.600 C 19.470 175.600,19.200 175.870,19.200 176.200 C 19.200 176.530,18.930 176.800,18.600 176.800 C 18.270 176.800,18.000 177.070,18.000 177.400 C 18.000 177.730,17.730 178.000,17.400 178.000 C 17.070 178.000,16.800 178.270,16.800 178.600 C 16.800 178.930,16.530 179.200,16.200 179.200 C 15.870 179.200,15.600 179.470,15.600 179.800 C 15.600 180.130,15.330 180.400,15.000 180.400 C 14.670 180.400,14.400 180.670,14.400 181.000 C 14.400 181.330,14.130 181.600,13.800 181.600 C 13.470 181.600,13.200 181.870,13.200 182.200 C 13.200 182.530,13.002 182.800,12.760 182.800 C 12.186 182.800,5.600 189.386,5.600 189.960 C 5.600 190.202,5.330 190.400,5.000 190.400 C 4.670 190.400,4.400 190.670,4.400 191.000 C 4.400 191.330,4.130 191.600,3.800 191.600 C 3.356 191.600,3.200 192.067,3.200 193.400 L 3.200 195.200 5.000 195.200 C 6.333 195.200,6.800 195.356,6.800 195.800 C 6.800 196.242,7.262 196.400,8.557 196.400 C 9.750 196.400,10.388 196.593,10.545 197.000 C 10.679 197.351,11.279 197.600,11.987 197.600 C 12.799 197.600,13.200 197.799,13.200 198.200 C 13.200 198.644,13.667 198.800,15.000 198.800 C 16.333 198.800,16.800 198.956,16.800 199.400 C 16.800 199.844,17.267 200.000,18.600 200.000 C 19.933 200.000,20.400 200.156,20.400 200.600 C 20.400 201.044,20.867 201.200,22.200 201.200 C 23.533 201.200,24.000 201.356,24.000 201.800 C 24.000 202.219,24.422 202.400,25.400 202.400 C 26.378 202.400,26.800 202.581,26.800 203.000 C 26.800 203.444,27.267 203.600,28.600 203.600 C 29.933 203.600,30.400 203.756,30.400 204.200 C 30.400 204.644,30.867 204.800,32.200 204.800 C 33.533 204.800,34.000 204.956,34.000 205.400 C 34.000 205.795,34.395 206.000,35.157 206.000 C 35.817 206.000,36.413 206.258,36.545 206.600 C 36.697 206.996,37.323 207.200,38.387 207.200 C 39.499 207.200,40.000 207.373,40.000 207.757 C 40.000 208.425,40.860 208.800,42.390 208.800 C 43.020 208.800,43.616 209.064,43.745 209.400 C 43.902 209.811,44.545 210.000,45.787 210.000 C 47.132 210.000,47.600 210.155,47.600 210.600 C 47.600 210.995,47.995 211.200,48.757 211.200 C 49.417 211.200,50.013 211.458,50.145 211.800 C 50.295 212.192,50.918 212.400,51.945 212.400 C 53.015 212.400,53.593 212.604,53.760 213.040 C 53.957 213.554,54.380 213.632,55.903 213.434 C 59.074 213.024,59.268 213.053,63.400 214.573 C 65.600 215.382,68.030 216.231,68.800 216.459 C 69.570 216.687,70.371 217.038,70.580 217.237 C 70.789 217.437,71.212 217.600,71.520 217.600 C 71.827 217.600,72.646 217.850,73.340 218.154 C 74.033 218.459,75.770 219.110,77.200 219.600 C 78.630 220.090,80.367 220.741,81.060 221.046 C 81.754 221.350,82.598 221.600,82.937 221.600 C 83.276 221.600,83.655 221.766,83.781 221.969 C 83.906 222.172,84.586 222.465,85.291 222.620 C 85.997 222.775,86.850 223.051,87.187 223.233 C 87.524 223.416,89.150 224.017,90.800 224.570 C 92.450 225.122,94.790 225.954,96.000 226.417 C 97.210 226.881,98.650 227.413,99.200 227.600 C 99.750 227.787,101.190 228.329,102.400 228.805 C 103.610 229.280,105.140 229.821,105.800 230.007 C 107.650 230.528,110.548 231.627,110.997 231.978 C 111.219 232.151,111.850 232.392,112.400 232.514 C 113.752 232.812,116.839 233.914,117.695 234.403 C 118.077 234.621,118.679 234.800,119.033 234.800 C 119.387 234.800,120.154 235.055,120.738 235.366 C 121.322 235.677,122.970 236.327,124.400 236.811 C 125.830 237.295,127.567 237.941,128.260 238.246 C 128.954 238.550,129.773 238.800,130.080 238.800 C 130.388 238.800,130.811 238.951,131.020 239.136 C 131.229 239.322,132.660 239.876,134.200 240.368 C 135.740 240.860,137.567 241.518,138.260 241.831 C 138.954 242.144,139.721 242.400,139.966 242.400 C 140.211 242.400,140.723 242.579,141.105 242.797 C 141.952 243.281,145.031 244.382,146.400 244.691 C 146.950 244.815,147.755 245.160,148.189 245.458 C 148.623 245.756,149.343 246.006,149.789 246.013 C 150.235 246.020,150.949 246.290,151.376 246.613 C 151.804 246.936,152.496 247.200,152.915 247.200 C 153.334 247.200,154.154 247.459,154.738 247.776 C 155.322 248.093,156.970 248.749,158.400 249.234 C 162.894 250.757,164.176 251.211,165.000 251.571 C 165.440 251.763,167.690 252.589,170.000 253.406 C 172.310 254.224,174.767 255.142,175.460 255.446 C 176.154 255.751,176.921 256.000,177.166 256.000 C 177.411 256.000,177.923 256.179,178.305 256.397 C 179.010 256.800,180.207 257.234,185.600 259.044 C 187.250 259.598,188.771 260.220,188.980 260.426 C 189.189 260.631,189.678 260.800,190.066 260.800 C 190.455 260.800,191.454 261.090,192.286 261.444 C 196.120 263.076,197.978 263.769,200.400 264.469 C 201.170 264.692,201.971 265.038,202.180 265.237 C 202.389 265.437,202.934 265.600,203.391 265.600 C 203.848 265.600,204.577 265.834,205.011 266.119 C 205.445 266.405,207.150 267.060,208.800 267.576 C 210.450 268.092,211.971 268.669,212.180 268.857 C 212.389 269.046,212.839 269.201,213.180 269.202 C 213.521 269.204,214.283 269.457,214.873 269.765 C 215.463 270.073,216.510 270.449,217.200 270.600 C 217.890 270.751,218.937 271.127,219.527 271.435 C 220.117 271.743,220.870 272.002,221.200 272.010 C 221.530 272.019,222.149 272.290,222.576 272.613 C 223.004 272.936,223.733 273.200,224.196 273.200 C 224.660 273.200,225.211 273.363,225.420 273.563 C 225.629 273.762,226.430 274.108,227.200 274.331 C 227.970 274.554,229.590 275.129,230.800 275.608 C 232.010 276.088,233.450 276.578,234.000 276.698 C 234.550 276.818,235.355 277.160,235.789 277.458 C 236.223 277.756,236.948 278.000,237.400 278.000 C 237.852 278.000,238.577 278.244,239.011 278.542 C 239.445 278.840,240.250 279.182,240.800 279.302 C 241.350 279.422,242.790 279.914,244.000 280.395 C 245.210 280.876,246.741 281.405,247.403 281.571 C 248.065 281.736,248.965 282.066,249.403 282.304 C 249.841 282.541,251.370 283.138,252.800 283.630 C 254.230 284.122,255.571 284.676,255.780 284.862 C 255.989 285.048,256.529 285.206,256.980 285.214 C 257.431 285.221,258.520 285.575,259.400 286.000 C 260.280 286.425,261.227 286.779,261.505 286.786 C 261.783 286.794,262.323 286.959,262.705 287.153 C 263.925 287.773,267.799 289.200,268.262 289.200 C 268.508 289.200,269.224 289.469,269.854 289.798 C 270.484 290.126,271.279 290.396,271.620 290.398 C 271.961 290.399,272.411 290.563,272.620 290.763 C 272.829 290.962,273.630 291.308,274.400 291.531 C 275.170 291.754,276.790 292.320,278.000 292.788 C 282.534 294.542,283.433 294.863,284.711 295.188 C 285.433 295.371,286.243 295.695,286.511 295.907 C 286.780 296.119,287.450 296.389,288.000 296.506 C 288.550 296.624,289.990 297.112,291.200 297.592 C 292.410 298.071,294.030 298.648,294.800 298.873 C 295.570 299.099,296.380 299.428,296.600 299.606 C 297.108 300.015,300.000 300.568,300.000 300.255 C 300.000 300.126,269.302 269.309,231.781 231.771 L 163.563 163.522 163.814 161.661 C 163.952 160.637,164.218 159.260,164.404 158.600 C 164.591 157.940,164.853 156.590,164.987 155.600 C 165.121 154.610,165.398 153.080,165.603 152.200 C 165.809 151.320,166.344 148.530,166.794 146.000 C 167.243 143.470,167.861 140.140,168.168 138.600 C 168.475 137.060,169.024 134.090,169.389 132.000 C 169.754 129.910,170.311 127.083,170.626 125.718 C 170.942 124.353,171.200 122.699,171.200 122.044 C 171.200 121.388,171.384 120.369,171.608 119.778 C 171.833 119.187,172.186 117.600,172.392 116.252 C 172.598 114.903,173.148 111.820,173.615 109.400 C 175.020 102.114,175.569 99.130,176.004 96.400 C 176.231 94.970,176.509 93.507,176.620 93.149 C 176.731 92.792,177.086 90.992,177.408 89.149 C 177.730 87.307,178.273 84.360,178.614 82.600 C 178.956 80.840,179.412 78.320,179.629 77.000 C 179.846 75.680,180.273 73.430,180.578 72.000 C 180.883 70.570,181.418 67.780,181.767 65.800 C 183.057 58.485,183.635 55.332,184.186 52.600 C 184.496 51.060,185.041 48.180,185.397 46.200 C 185.752 44.220,186.303 41.404,186.621 39.943 C 186.940 38.481,187.200 36.898,187.200 36.425 C 187.200 35.952,187.458 34.447,187.774 33.082 C 188.089 31.717,188.646 28.890,189.012 26.800 C 189.377 24.710,189.854 22.190,190.071 21.200 C 190.523 19.144,191.490 13.737,192.038 10.200 C 192.243 8.880,192.664 7.260,192.974 6.600 C 194.243 3.901,194.216 3.200,192.843 3.200 C 192.005 3.200,191.600 3.395,191.600 3.800 " stroke="none" fill="#fbbc3e" fill-rule="evenodd"></path><path id="path1" d="M193.598 4.900 C 193.596 5.175,193.335 5.898,193.017 6.508 C 192.699 7.117,192.253 8.827,192.025 10.308 C 191.564 13.301,191.094 15.930,190.218 20.400 C 189.894 22.050,189.339 25.020,188.984 27.000 C 188.629 28.980,188.083 31.717,187.770 33.082 C 187.456 34.447,187.200 35.952,187.200 36.425 C 187.200 36.898,186.940 38.481,186.621 39.943 C 186.303 41.404,185.752 44.220,185.397 46.200 C 185.041 48.180,184.496 51.060,184.186 52.600 C 183.635 55.332,183.057 58.485,181.767 65.800 C 181.418 67.780,180.883 70.570,180.578 72.000 C 180.273 73.430,179.846 75.680,179.629 77.000 C 179.412 78.320,178.956 80.840,178.614 82.600 C 178.273 84.360,177.730 87.307,177.408 89.149 C 177.086 90.992,176.731 92.792,176.620 93.149 C 176.509 93.507,176.231 94.970,176.004 96.400 C 175.569 99.130,175.020 102.114,173.615 109.400 C 173.148 111.820,172.598 114.903,172.392 116.252 C 172.186 117.600,171.833 119.187,171.608 119.778 C 171.384 120.369,171.200 121.388,171.200 122.044 C 171.200 122.699,170.942 124.353,170.626 125.718 C 170.311 127.083,169.754 129.910,169.389 132.000 C 169.024 134.090,168.475 137.060,168.168 138.600 C 167.861 140.140,167.243 143.470,166.794 146.000 C 166.344 148.530,165.809 151.320,165.603 152.200 C 165.398 153.080,165.121 154.610,164.987 155.600 C 164.853 156.590,164.591 157.940,164.404 158.600 C 164.218 159.260,163.952 160.637,163.814 161.660 L 163.563 163.521 231.654 231.644 C 270.066 270.075,299.820 299.541,299.917 299.249 C 300.012 298.963,299.890 298.530,299.645 298.285 C 299.400 298.040,299.199 297.561,299.198 297.220 C 299.196 296.879,298.961 296.150,298.674 295.600 C 298.388 295.050,297.724 293.250,297.199 291.600 C 296.675 289.950,296.082 288.380,295.883 288.111 C 295.684 287.843,295.374 287.033,295.195 286.311 C 295.016 285.590,294.476 284.010,293.995 282.800 C 293.514 281.590,293.024 280.150,292.906 279.600 C 292.789 279.050,292.548 278.415,292.371 278.189 C 292.195 277.963,291.587 276.359,291.021 274.625 C 290.455 272.891,289.838 271.276,289.649 271.036 C 289.461 270.796,289.208 270.150,289.086 269.600 C 288.856 268.556,287.830 265.576,287.228 264.200 C 287.036 263.760,286.486 262.230,286.007 260.800 C 285.528 259.370,284.993 257.924,284.819 257.587 C 284.644 257.250,284.375 256.397,284.220 255.691 C 284.065 254.986,283.772 254.306,283.569 254.181 C 283.366 254.055,283.200 253.676,283.200 253.337 C 283.200 252.998,282.950 252.154,282.646 251.460 C 282.341 250.767,281.695 249.030,281.211 247.600 C 280.727 246.170,280.077 244.522,279.766 243.938 C 279.455 243.354,279.200 242.535,279.200 242.118 C 279.200 241.701,279.046 241.189,278.857 240.980 C 278.669 240.771,278.094 239.250,277.580 237.600 C 277.066 235.950,276.508 234.411,276.341 234.181 C 276.173 233.950,275.560 232.285,274.977 230.479 C 274.395 228.674,273.757 227.097,273.559 226.975 C 273.362 226.853,273.200 226.234,273.200 225.600 C 273.200 224.966,273.042 224.350,272.849 224.230 C 272.656 224.111,272.011 222.481,271.414 220.609 C 270.818 218.736,270.166 217.102,269.965 216.978 C 269.764 216.854,269.594 216.358,269.586 215.876 C 269.579 215.394,269.225 214.280,268.800 213.400 C 268.375 212.520,268.021 211.573,268.014 211.295 C 268.006 211.017,267.835 210.477,267.633 210.095 C 267.431 209.713,266.603 207.510,265.793 205.200 C 264.983 202.890,264.155 200.640,263.954 200.200 C 263.753 199.760,263.424 198.860,263.224 198.200 C 263.024 197.540,262.468 196.010,261.990 194.800 C 261.512 193.590,261.022 192.150,260.902 191.600 C 260.782 191.050,260.440 190.245,260.142 189.811 C 259.844 189.377,259.600 188.708,259.600 188.325 C 259.600 187.639,258.865 185.699,257.761 183.468 C 257.452 182.845,257.199 182.035,257.198 181.668 C 257.196 181.300,256.943 180.517,256.635 179.927 C 256.327 179.337,255.955 178.304,255.807 177.632 C 255.659 176.959,255.372 176.306,255.169 176.181 C 254.966 176.055,254.800 175.553,254.800 175.065 C 254.800 174.577,254.545 173.814,254.233 173.369 C 253.921 172.923,253.541 171.891,253.388 171.075 C 253.235 170.259,252.950 169.493,252.755 169.372 C 252.560 169.251,252.399 168.848,252.398 168.476 C 252.396 168.104,252.143 167.317,251.835 166.727 C 251.527 166.137,251.148 165.057,250.992 164.327 C 250.835 163.597,250.578 162.820,250.419 162.600 C 250.260 162.380,249.723 161.030,249.226 159.600 C 248.729 158.170,248.157 156.640,247.955 156.200 C 247.753 155.760,247.424 154.860,247.224 154.200 C 247.024 153.540,246.468 152.010,245.990 150.800 C 245.512 149.590,245.024 148.150,244.906 147.600 C 244.789 147.050,244.519 146.380,244.307 146.111 C 244.095 145.843,243.774 145.033,243.595 144.311 C 243.416 143.590,242.879 142.010,242.403 140.800 C 241.926 139.590,241.354 137.970,241.131 137.200 C 240.908 136.430,240.562 135.629,240.363 135.420 C 240.163 135.211,240.000 134.660,240.000 134.196 C 240.000 133.733,239.736 133.004,239.413 132.576 C 239.090 132.149,238.820 131.435,238.813 130.989 C 238.806 130.543,238.553 129.823,238.251 129.389 C 237.949 128.955,237.572 128.003,237.413 127.273 C 237.255 126.543,236.873 125.463,236.565 124.873 C 236.257 124.283,236.004 123.496,236.002 123.124 C 236.001 122.752,235.820 122.336,235.600 122.200 C 235.380 122.064,235.199 121.648,235.198 121.276 C 235.196 120.904,234.961 120.150,234.674 119.600 C 234.388 119.050,233.724 117.250,233.199 115.600 C 232.675 113.950,232.119 112.420,231.964 112.200 C 231.810 111.980,231.499 111.170,231.273 110.400 C 231.048 109.630,230.471 108.010,229.992 106.800 C 229.512 105.590,229.024 104.150,228.906 103.600 C 228.789 103.050,228.548 102.415,228.371 102.189 C 228.195 101.963,227.587 100.359,227.021 98.625 C 226.455 96.891,225.838 95.276,225.649 95.036 C 225.461 94.796,225.208 94.150,225.086 93.600 C 224.856 92.556,223.830 89.576,223.228 88.200 C 223.036 87.760,222.486 86.230,222.007 84.800 C 221.528 83.370,220.993 81.924,220.819 81.587 C 220.644 81.250,220.375 80.397,220.220 79.691 C 220.065 78.986,219.772 78.306,219.569 78.181 C 219.366 78.055,219.199 77.648,219.198 77.276 C 219.196 76.904,218.961 76.150,218.674 75.600 C 218.388 75.050,217.723 73.250,217.196 71.600 C 216.669 69.950,216.005 68.245,215.719 67.811 C 215.434 67.377,215.200 66.700,215.200 66.306 C 215.200 65.912,215.021 65.277,214.803 64.895 C 213.427 62.488,212.416 57.884,213.162 57.423 C 213.811 57.022,213.693 55.210,213.000 54.945 C 212.608 54.794,212.400 54.171,212.400 53.145 C 212.400 52.118,212.192 51.495,211.800 51.345 C 211.458 51.213,211.200 50.617,211.200 49.957 C 211.200 49.195,210.995 48.800,210.600 48.800 C 210.155 48.800,210.000 48.332,210.000 46.987 C 210.000 45.745,209.811 45.102,209.400 44.945 C 209.064 44.816,208.800 44.220,208.800 43.590 C 208.800 42.060,208.425 41.200,207.757 41.200 C 207.363 41.200,207.200 40.672,207.200 39.400 C 207.200 38.067,207.044 37.600,206.600 37.600 C 206.200 37.600,206.000 37.200,206.000 36.400 C 206.000 35.600,205.800 35.200,205.400 35.200 C 204.956 35.200,204.800 34.733,204.800 33.400 C 204.800 32.067,204.644 31.600,204.200 31.600 C 203.755 31.600,203.600 31.132,203.600 29.787 C 203.600 28.545,203.411 27.902,203.000 27.745 C 202.608 27.594,202.400 26.971,202.400 25.945 C 202.400 24.918,202.192 24.295,201.800 24.145 C 201.458 24.013,201.200 23.417,201.200 22.757 C 201.200 21.995,200.995 21.600,200.600 21.600 C 200.156 21.600,200.000 21.133,200.000 19.800 C 200.000 18.467,199.844 18.000,199.400 18.000 C 198.956 18.000,198.800 17.533,198.800 16.200 C 198.800 14.867,198.644 14.400,198.200 14.400 C 197.766 14.400,197.600 13.954,197.600 12.787 C 197.600 11.723,197.396 11.097,197.000 10.945 C 196.630 10.803,196.400 10.195,196.400 9.357 C 196.400 8.417,196.215 8.000,195.800 8.000 C 195.356 8.000,195.200 7.533,195.200 6.200 C 195.200 4.667,195.081 4.400,194.400 4.400 C 193.960 4.400,193.599 4.625,193.598 4.900 " stroke="none" fill="#fbfbfb" fill-rule="evenodd"></path><path id="path2" d="M216.120 56.565 C 215.944 56.876,215.260 57.191,214.600 57.265 C 213.037 57.441,213.180 59.205,215.055 62.862 C 215.355 63.446,215.601 64.166,215.602 64.462 C 215.604 64.758,215.857 65.483,216.165 66.073 C 216.473 66.663,216.849 67.710,217.000 68.400 C 217.151 69.090,217.527 70.137,217.835 70.727 C 218.143 71.317,218.396 72.104,218.398 72.476 C 218.399 72.848,218.580 73.264,218.800 73.400 C 219.020 73.536,219.206 73.952,219.214 74.324 C 219.221 74.696,219.575 75.720,220.000 76.600 C 220.425 77.480,220.785 78.560,220.799 79.000 C 220.814 79.440,221.090 80.149,221.413 80.576 C 221.736 81.004,222.006 81.724,222.013 82.176 C 222.020 82.629,222.290 83.349,222.613 83.776 C 222.936 84.204,223.200 84.958,223.200 85.453 C 223.200 85.948,223.366 86.455,223.569 86.581 C 223.772 86.706,224.059 87.359,224.207 88.032 C 224.355 88.704,224.727 89.737,225.035 90.327 C 225.343 90.917,225.602 91.760,225.610 92.200 C 225.619 92.640,225.890 93.349,226.213 93.776 C 226.536 94.204,226.800 94.934,226.800 95.400 C 226.800 95.866,227.064 96.596,227.387 97.024 C 227.710 97.451,227.980 98.171,227.987 98.624 C 227.994 99.076,228.264 99.796,228.587 100.224 C 228.910 100.651,229.180 101.473,229.187 102.051 C 229.194 102.629,229.470 103.326,229.800 103.600 C 230.130 103.874,230.401 104.481,230.402 104.949 C 230.404 105.417,230.674 106.316,231.002 106.946 C 231.331 107.576,231.600 108.269,231.600 108.485 C 231.600 108.702,231.850 109.446,232.154 110.140 C 232.459 110.833,233.104 112.570,233.587 114.000 C 234.069 115.430,234.630 116.913,234.832 117.295 C 235.034 117.677,235.206 118.217,235.214 118.495 C 235.221 118.773,235.575 119.720,236.000 120.600 C 236.425 121.480,236.779 122.500,236.786 122.868 C 236.794 123.235,237.059 124.045,237.376 124.668 C 238.472 126.825,239.200 128.724,239.213 129.460 C 239.220 129.867,239.490 130.549,239.813 130.976 C 240.136 131.404,240.400 132.058,240.400 132.431 C 240.400 132.804,240.669 133.624,240.998 134.254 C 241.326 134.884,241.596 135.700,241.598 136.068 C 241.599 136.435,241.852 137.245,242.161 137.868 C 243.269 140.107,244.000 142.040,244.000 142.734 C 244.000 143.122,244.194 143.634,244.431 143.871 C 244.668 144.108,245.013 144.909,245.197 145.651 C 245.380 146.393,245.921 147.990,246.397 149.200 C 246.874 150.410,247.435 151.976,247.645 152.680 C 247.855 153.384,248.289 154.464,248.611 155.080 C 248.932 155.696,249.196 156.479,249.198 156.820 C 249.199 157.161,249.346 157.611,249.525 157.820 C 249.703 158.029,250.278 159.550,250.802 161.200 C 251.325 162.850,251.988 164.650,252.274 165.200 C 252.561 165.750,252.796 166.404,252.798 166.654 C 252.799 166.904,253.069 167.624,253.398 168.254 C 253.726 168.884,254.002 169.760,254.010 170.200 C 254.019 170.640,254.290 171.349,254.613 171.776 C 254.936 172.204,255.206 172.924,255.213 173.376 C 255.220 173.829,255.490 174.549,255.813 174.976 C 256.136 175.404,256.400 176.133,256.400 176.596 C 256.400 177.060,256.563 177.611,256.763 177.820 C 256.962 178.029,257.308 178.830,257.531 179.600 C 257.754 180.370,258.325 181.990,258.800 183.200 C 259.275 184.410,259.846 186.030,260.069 186.800 C 260.292 187.570,260.638 188.371,260.837 188.580 C 261.037 188.789,261.200 189.334,261.200 189.791 C 261.200 190.248,261.444 190.977,261.742 191.411 C 262.040 191.845,262.385 192.650,262.509 193.200 C 262.746 194.252,263.778 197.243,264.372 198.600 C 264.564 199.040,265.114 200.570,265.593 202.000 C 266.072 203.430,266.630 204.913,266.832 205.295 C 267.034 205.677,267.206 206.217,267.214 206.495 C 267.221 206.773,267.575 207.720,268.000 208.600 C 268.425 209.480,268.779 210.504,268.786 210.876 C 268.794 211.248,268.960 211.651,269.155 211.772 C 269.350 211.893,269.635 212.659,269.788 213.475 C 269.941 214.291,270.321 215.323,270.633 215.769 C 270.945 216.214,271.206 216.943,271.213 217.389 C 271.220 217.835,271.490 218.549,271.813 218.976 C 272.136 219.404,272.400 220.133,272.400 220.596 C 272.400 221.060,272.563 221.611,272.763 221.820 C 272.962 222.029,273.308 222.830,273.531 223.600 C 273.754 224.370,274.325 225.990,274.800 227.200 C 275.275 228.410,275.846 230.030,276.069 230.800 C 276.292 231.570,276.638 232.371,276.837 232.580 C 277.037 232.789,277.200 233.334,277.200 233.791 C 277.200 234.248,277.434 234.977,277.719 235.411 C 278.005 235.845,278.660 237.550,279.176 239.200 C 279.692 240.850,280.269 242.371,280.457 242.580 C 280.646 242.789,280.801 243.239,280.802 243.580 C 280.804 243.921,281.074 244.716,281.402 245.346 C 281.731 245.976,282.001 246.696,282.002 246.946 C 282.004 247.196,282.257 247.883,282.565 248.473 C 282.873 249.063,283.254 250.137,283.413 250.860 C 283.572 251.583,283.858 252.450,284.048 252.787 C 284.492 253.574,285.599 256.704,285.891 258.000 C 286.015 258.550,286.360 259.355,286.658 259.789 C 286.956 260.223,287.206 260.943,287.213 261.389 C 287.220 261.835,287.490 262.549,287.813 262.976 C 288.136 263.404,288.400 264.058,288.400 264.431 C 288.400 264.804,288.669 265.624,288.998 266.254 C 289.326 266.884,289.596 267.700,289.598 268.068 C 289.599 268.435,289.852 269.245,290.161 269.868 C 291.244 272.056,292.000 274.034,292.013 274.714 C 292.020 275.091,292.290 275.749,292.613 276.176 C 292.936 276.604,293.200 277.328,293.200 277.787 C 293.200 278.246,293.434 278.977,293.719 279.411 C 294.005 279.845,294.660 281.550,295.176 283.200 C 295.692 284.850,296.269 286.371,296.457 286.580 C 296.646 286.789,296.801 287.239,296.802 287.580 C 296.804 287.921,297.057 288.683,297.365 289.273 C 297.673 289.863,298.045 290.896,298.193 291.568 C 298.341 292.241,298.628 292.894,298.831 293.019 C 299.034 293.145,299.200 293.614,299.200 294.063 C 299.200 294.512,299.462 295.446,299.782 296.140 C 300.429 297.539,301.585 300.833,301.594 301.300 C 301.602 301.720,298.895 301.677,298.632 301.253 C 298.514 301.061,297.694 300.789,296.809 300.648 C 295.924 300.506,295.200 300.228,295.200 300.030 C 295.200 299.832,294.481 299.549,293.602 299.400 C 292.723 299.252,291.903 298.966,291.778 298.765 C 291.654 298.564,291.248 298.399,290.876 298.398 C 290.504 298.396,289.684 298.126,289.054 297.798 C 288.424 297.469,287.704 297.194,287.454 297.186 C 287.204 297.179,286.280 296.825,285.400 296.400 C 284.520 295.975,283.440 295.615,283.000 295.601 C 282.560 295.586,281.851 295.310,281.424 294.987 C 280.996 294.664,280.254 294.400,279.773 294.400 C 279.292 294.400,278.674 294.130,278.400 293.800 C 278.126 293.470,277.489 293.200,276.983 293.200 C 276.478 293.200,275.555 292.950,274.932 292.644 C 273.426 291.905,271.252 291.154,269.913 290.911 C 269.315 290.802,268.618 290.463,268.364 290.156 C 268.110 289.850,267.418 289.600,266.827 289.600 C 266.236 289.600,265.404 289.336,264.976 289.013 C 264.549 288.690,263.829 288.420,263.376 288.413 C 262.924 288.406,262.204 288.136,261.776 287.813 C 261.349 287.490,260.527 287.220,259.949 287.213 C 259.371 287.206,258.674 286.930,258.400 286.600 C 258.126 286.270,257.519 285.999,257.051 285.998 C 256.583 285.996,255.684 285.726,255.054 285.398 C 254.424 285.069,253.704 284.794,253.454 284.786 C 253.204 284.779,252.280 284.425,251.400 284.000 C 250.520 283.575,249.496 283.221,249.124 283.214 C 248.752 283.206,248.336 283.020,248.200 282.800 C 248.064 282.580,247.648 282.399,247.276 282.398 C 246.904 282.396,246.117 282.143,245.527 281.835 C 244.937 281.527,243.890 281.151,243.200 281.000 C 242.510 280.849,241.463 280.473,240.873 280.165 C 240.283 279.857,239.519 279.604,239.176 279.602 C 238.834 279.601,238.204 279.336,237.776 279.013 C 237.349 278.690,236.550 278.414,236.000 278.400 C 235.450 278.386,234.651 278.110,234.224 277.787 C 233.796 277.464,233.076 277.194,232.624 277.187 C 232.171 277.180,231.451 276.910,231.024 276.587 C 230.596 276.264,229.866 276.000,229.400 276.000 C 228.934 276.000,228.204 275.736,227.776 275.413 C 227.349 275.090,226.629 274.820,226.176 274.813 C 225.724 274.806,225.004 274.536,224.576 274.213 C 224.149 273.890,223.435 273.620,222.989 273.613 C 222.543 273.606,221.823 273.356,221.389 273.057 C 220.955 272.758,219.925 272.390,219.100 272.239 C 218.275 272.087,217.600 271.792,217.600 271.582 C 217.600 271.372,217.094 271.200,216.476 271.200 C 215.859 271.200,215.004 270.936,214.576 270.613 C 214.149 270.290,213.435 270.020,212.989 270.013 C 212.543 270.006,211.823 269.756,211.389 269.457 C 210.955 269.158,209.925 268.790,209.100 268.639 C 208.275 268.487,207.600 268.208,207.600 268.017 C 207.600 267.826,206.881 267.549,206.002 267.400 C 205.123 267.252,204.303 266.966,204.178 266.765 C 204.054 266.564,203.648 266.399,203.276 266.398 C 202.904 266.396,202.117 266.143,201.527 265.835 C 200.937 265.527,199.857 265.145,199.127 264.987 C 198.397 264.828,197.445 264.451,197.011 264.149 C 196.577 263.847,195.923 263.600,195.557 263.600 C 195.191 263.600,194.376 263.331,193.746 263.002 C 193.116 262.674,192.330 262.398,192.000 262.390 C 191.670 262.381,191.051 262.110,190.624 261.787 C 190.196 261.464,189.386 261.194,188.824 261.187 C 188.261 261.180,187.451 260.910,187.024 260.587 C 186.596 260.264,185.876 259.994,185.424 259.987 C 184.971 259.980,184.251 259.710,183.824 259.387 C 183.396 259.064,182.676 258.794,182.224 258.787 C 181.771 258.780,181.051 258.510,180.624 258.187 C 180.196 257.864,179.472 257.600,179.013 257.600 C 178.554 257.600,177.823 257.356,177.389 257.057 C 176.955 256.758,175.925 256.390,175.100 256.239 C 174.275 256.087,173.600 255.792,173.600 255.582 C 173.600 255.372,173.195 255.199,172.700 255.198 C 172.205 255.196,171.317 254.943,170.727 254.635 C 170.137 254.327,169.104 253.955,168.432 253.807 C 167.759 253.659,167.106 253.372,166.981 253.169 C 166.855 252.966,166.358 252.799,165.876 252.798 C 165.394 252.796,164.506 252.538,163.903 252.223 C 163.300 251.908,161.590 251.249,160.103 250.759 C 158.616 250.268,157.180 249.699,156.911 249.494 C 156.643 249.289,155.833 248.968,155.111 248.782 C 153.229 248.296,147.556 246.246,146.526 245.680 C 146.046 245.416,145.315 245.200,144.903 245.200 C 144.490 245.200,143.804 244.936,143.376 244.613 C 142.949 244.290,142.229 244.020,141.776 244.013 C 141.324 244.006,140.604 243.736,140.176 243.413 C 139.749 243.090,138.939 242.820,138.376 242.813 C 137.814 242.806,137.004 242.536,136.576 242.213 C 136.149 241.890,135.429 241.620,134.976 241.613 C 134.524 241.606,133.804 241.336,133.376 241.013 C 132.949 240.690,132.235 240.420,131.789 240.413 C 131.343 240.406,130.623 240.156,130.189 239.857 C 129.755 239.558,128.725 239.190,127.900 239.039 C 127.075 238.887,126.400 238.592,126.400 238.382 C 126.400 238.172,126.022 238.000,125.560 238.000 C 125.099 238.000,124.154 237.750,123.460 237.446 C 122.767 237.141,121.030 236.490,119.600 236.000 C 118.170 235.510,116.433 234.859,115.740 234.554 C 115.046 234.250,114.227 234.000,113.920 234.000 C 113.612 234.000,113.189 233.837,112.980 233.637 C 112.771 233.438,111.970 233.086,111.200 232.856 C 108.736 232.120,103.429 230.177,102.526 229.680 C 102.046 229.416,101.377 229.200,101.040 229.200 C 100.429 229.200,98.415 228.424,96.268 227.361 C 95.645 227.052,94.745 226.794,94.268 226.787 C 93.790 226.780,93.051 226.510,92.624 226.187 C 92.196 225.864,91.566 225.599,91.224 225.598 C 90.881 225.596,90.084 225.326,89.454 224.998 C 88.824 224.669,88.042 224.400,87.716 224.400 C 87.390 224.400,86.646 224.141,86.062 223.824 C 85.478 223.507,83.830 222.871,82.400 222.412 C 80.970 221.953,79.440 221.426,79.000 221.242 C 77.785 220.733,74.043 219.358,71.800 218.595 C 70.700 218.221,69.440 217.752,69.000 217.552 C 68.560 217.352,67.660 217.024,67.000 216.824 C 66.340 216.624,64.810 216.071,63.600 215.595 C 62.390 215.120,60.860 214.579,60.200 214.392 C 59.540 214.206,58.595 213.931,58.100 213.780 L 57.200 213.507 57.200 218.553 C 57.200 222.773,57.102 223.600,56.600 223.600 C 55.720 223.600,55.720 230.317,56.600 230.655 C 57.107 230.850,57.200 232.205,57.200 239.443 C 57.200 246.783,57.285 248.000,57.800 248.000 C 58.295 248.000,58.400 248.735,58.400 252.213 C 58.400 255.588,58.519 256.471,59.000 256.655 C 59.454 256.830,59.600 257.565,59.600 259.680 C 59.600 262.138,59.696 262.500,60.400 262.684 C 61.109 262.869,61.200 263.230,61.200 265.847 C 61.200 268.205,61.321 268.800,61.800 268.800 C 62.265 268.800,62.400 269.329,62.400 271.157 C 62.400 272.884,62.561 273.576,63.000 273.745 C 63.411 273.902,63.600 274.545,63.600 275.787 C 63.600 277.132,63.755 277.600,64.200 277.600 C 64.644 277.600,64.800 278.067,64.800 279.400 C 64.800 280.733,64.956 281.200,65.400 281.200 C 65.844 281.200,66.000 281.667,66.000 283.000 C 66.000 284.333,66.156 284.800,66.600 284.800 C 67.044 284.800,67.200 285.267,67.200 286.600 C 67.200 287.933,67.356 288.400,67.800 288.400 C 68.219 288.400,68.400 288.822,68.400 289.800 C 68.400 290.778,68.581 291.200,69.000 291.200 C 69.434 291.200,69.600 291.646,69.600 292.813 C 69.600 293.877,69.804 294.503,70.200 294.655 C 70.542 294.787,70.800 295.383,70.800 296.043 C 70.800 296.805,71.005 297.200,71.400 297.200 C 71.800 297.200,72.000 297.600,72.000 298.400 C 72.000 299.200,72.200 299.600,72.600 299.600 C 73.000 299.600,73.200 300.000,73.200 300.800 C 73.200 301.600,73.400 302.000,73.800 302.000 C 74.201 302.000,74.400 302.401,74.400 303.213 C 74.400 303.921,74.649 304.521,75.000 304.655 C 75.330 304.782,75.600 305.333,75.600 305.880 C 75.600 306.538,75.871 306.946,76.400 307.084 C 76.967 307.232,77.200 307.630,77.200 308.447 C 77.200 309.205,77.405 309.600,77.800 309.600 C 78.175 309.600,78.400 309.979,78.400 310.613 C 78.400 311.169,78.670 311.729,79.000 311.855 C 79.330 311.982,79.600 312.336,79.600 312.643 C 79.600 312.949,79.870 313.200,80.200 313.200 C 80.600 313.200,80.800 313.600,80.800 314.400 C 80.800 315.200,81.000 315.600,81.400 315.600 C 81.800 315.600,82.000 316.000,82.000 316.800 C 82.000 317.600,82.200 318.000,82.600 318.000 C 82.930 318.000,83.200 318.270,83.200 318.600 C 83.200 318.930,83.470 319.200,83.800 319.200 C 84.201 319.200,84.400 319.601,84.400 320.413 C 84.400 321.121,84.649 321.721,85.000 321.855 C 85.330 321.982,85.600 322.336,85.600 322.643 C 85.600 322.949,85.870 323.200,86.200 323.200 C 86.530 323.200,86.800 323.547,86.800 323.971 C 86.800 324.396,87.070 325.013,87.400 325.343 C 87.730 325.673,88.000 326.136,88.000 326.371 C 88.000 326.607,88.270 326.800,88.600 326.800 C 88.930 326.800,89.200 327.070,89.200 327.400 C 89.200 327.730,89.470 328.000,89.800 328.000 C 90.175 328.000,90.400 328.379,90.400 329.013 C 90.400 329.569,90.670 330.129,91.000 330.255 C 91.330 330.382,91.600 330.736,91.600 331.043 C 91.600 331.349,91.960 331.600,92.400 331.600 C 92.844 331.600,93.200 331.867,93.200 332.200 C 93.200 332.530,93.470 332.800,93.800 332.800 C 94.200 332.800,94.400 333.200,94.400 334.000 C 94.400 334.800,94.600 335.200,95.000 335.200 C 95.330 335.200,95.600 335.476,95.600 335.813 C 95.600 336.149,95.870 336.529,96.200 336.655 C 96.530 336.782,96.800 337.136,96.800 337.443 C 96.800 337.749,97.070 338.000,97.400 338.000 C 97.730 338.000,98.000 338.270,98.000 338.600 C 98.000 338.930,98.270 339.200,98.600 339.200 C 98.930 339.200,99.200 339.470,99.200 339.800 C 99.200 340.130,99.470 340.400,99.800 340.400 C 100.130 340.400,100.400 340.670,100.400 341.000 C 100.400 341.330,100.670 341.600,101.000 341.600 C 101.330 341.600,101.600 341.870,101.600 342.200 C 101.600 342.530,101.870 342.800,102.200 342.800 C 102.544 342.800,102.800 343.161,102.800 343.647 C 102.800 344.524,105.565 347.600,106.353 347.600 C 106.599 347.600,106.800 347.870,106.800 348.200 C 106.800 348.530,107.070 348.800,107.400 348.800 C 107.730 348.800,108.000 349.070,108.000 349.400 C 108.000 349.730,108.270 350.000,108.600 350.000 C 108.930 350.000,109.200 350.270,109.200 350.600 C 109.200 351.000,109.600 351.200,110.400 351.200 C 111.333 351.200,111.600 351.378,111.600 352.000 C 111.600 352.444,111.867 352.800,112.200 352.800 C 112.530 352.800,112.800 353.070,112.800 353.400 C 112.800 353.730,113.070 354.000,113.400 354.000 C 113.730 354.000,114.000 354.270,114.000 354.600 C 114.000 354.930,114.270 355.200,114.600 355.200 C 114.930 355.200,115.200 355.470,115.200 355.800 C 115.200 356.130,115.470 356.400,115.800 356.400 C 116.130 356.400,116.400 356.670,116.400 357.000 C 116.400 357.330,116.625 357.608,116.900 357.617 C 117.175 357.626,117.842 358.166,118.381 358.817 C 118.947 359.500,119.751 360.000,120.281 360.000 C 120.831 360.000,121.200 360.241,121.200 360.600 C 121.200 360.930,121.451 361.200,121.757 361.200 C 122.064 361.200,122.418 361.470,122.545 361.800 C 122.671 362.130,123.051 362.400,123.387 362.400 C 123.724 362.400,124.000 362.670,124.000 363.000 C 124.000 363.400,124.400 363.600,125.200 363.600 C 126.000 363.600,126.400 363.800,126.400 364.200 C 126.400 364.530,126.670 364.800,127.000 364.800 C 127.330 364.800,127.600 365.070,127.600 365.400 C 127.600 365.730,127.870 366.000,128.200 366.000 C 128.530 366.000,128.800 366.270,128.800 366.600 C 128.800 367.000,129.200 367.200,130.000 367.200 C 130.933 367.200,131.200 367.378,131.200 368.000 C 131.200 368.444,131.467 368.800,131.800 368.800 C 132.130 368.800,132.400 368.966,132.400 369.168 C 132.400 369.371,132.925 369.652,133.567 369.793 C 134.208 369.934,134.833 370.308,134.954 370.624 C 135.076 370.941,135.631 371.200,136.187 371.200 C 136.821 371.200,137.200 371.425,137.200 371.800 C 137.200 372.130,137.476 372.400,137.813 372.400 C 138.149 372.400,138.529 372.670,138.655 373.000 C 138.787 373.342,139.383 373.600,140.043 373.600 C 140.805 373.600,141.200 373.805,141.200 374.200 C 141.200 374.600,141.600 374.800,142.400 374.800 C 143.200 374.800,143.600 375.000,143.600 375.400 C 143.600 375.730,143.851 376.000,144.157 376.000 C 144.464 376.000,144.818 376.270,144.945 376.600 C 145.071 376.930,145.631 377.200,146.187 377.200 C 146.821 377.200,147.200 377.425,147.200 377.800 C 147.200 378.195,147.595 378.400,148.357 378.400 C 149.017 378.400,149.613 378.658,149.745 379.000 C 149.871 379.330,150.411 379.600,150.945 379.600 C 151.478 379.600,152.018 379.870,152.145 380.200 C 152.279 380.551,152.879 380.800,153.587 380.800 C 154.399 380.800,154.800 380.999,154.800 381.400 C 154.800 381.844,155.267 382.000,156.600 382.000 C 157.933 382.000,158.400 382.156,158.400 382.600 C 158.400 382.995,158.795 383.200,159.553 383.200 C 160.370 383.200,160.768 383.433,160.916 384.000 C 161.055 384.532,161.462 384.800,162.129 384.800 C 162.681 384.800,163.195 384.984,163.270 385.209 C 163.345 385.435,164.125 385.732,165.003 385.870 C 165.881 386.008,166.744 386.364,166.920 386.661 C 167.100 386.964,167.912 387.200,168.777 387.200 C 169.775 387.200,170.395 387.411,170.545 387.800 C 170.702 388.211,171.345 388.400,172.587 388.400 C 173.932 388.400,174.400 388.555,174.400 389.000 C 174.400 389.444,174.867 389.600,176.200 389.600 C 177.533 389.600,178.000 389.756,178.000 390.200 C 178.000 390.667,178.533 390.800,180.400 390.800 C 182.267 390.800,182.800 390.933,182.800 391.400 C 182.800 391.865,183.329 392.000,185.157 392.000 C 186.884 392.000,187.576 392.161,187.745 392.600 C 187.914 393.042,188.612 393.200,190.387 393.200 C 192.265 393.200,192.800 393.333,192.800 393.800 C 192.800 394.289,193.467 394.400,196.400 394.400 C 199.333 394.400,200.000 394.511,200.000 395.000 C 200.000 395.505,200.889 395.600,205.600 395.600 C 210.311 395.600,211.200 395.695,211.200 396.200 C 211.200 396.723,213.244 396.800,227.200 396.800 C 241.156 396.800,243.200 396.723,243.200 396.200 C 243.200 395.696,244.067 395.600,248.600 395.600 C 253.133 395.600,254.000 395.504,254.000 395.000 C 254.000 394.517,254.622 394.400,257.200 394.400 C 259.778 394.400,260.400 394.283,260.400 393.800 C 260.400 393.320,261.000 393.200,263.400 393.200 C 265.800 393.200,266.400 393.080,266.400 392.600 C 266.400 392.133,266.933 392.000,268.800 392.000 C 270.667 392.000,271.200 391.867,271.200 391.400 C 271.200 390.933,271.735 390.800,273.613 390.800 C 275.388 390.800,276.086 390.642,276.255 390.200 C 276.406 389.808,277.029 389.600,278.055 389.600 C 279.082 389.600,279.705 389.392,279.855 389.000 C 280.012 388.593,280.650 388.400,281.843 388.400 C 283.138 388.400,283.600 388.242,283.600 387.800 C 283.600 387.383,284.019 387.200,284.971 387.200 C 285.726 387.200,286.613 386.930,286.943 386.600 C 287.273 386.270,288.011 386.000,288.584 386.000 C 289.157 386.000,289.729 385.730,289.855 385.400 C 290.007 385.006,290.632 384.800,291.680 384.800 C 292.938 384.800,293.319 384.631,293.484 384.000 C 293.632 383.433,294.030 383.200,294.847 383.200 C 295.605 383.200,296.000 382.995,296.000 382.600 C 296.000 382.200,296.400 382.000,297.200 382.000 C 298.000 382.000,298.400 381.800,298.400 381.400 C 298.400 381.000,298.800 380.800,299.600 380.800 C 300.400 380.800,300.800 380.600,300.800 380.200 C 300.800 379.800,301.200 379.600,302.000 379.600 C 302.800 379.600,303.200 379.400,303.200 379.000 C 303.200 378.581,303.622 378.400,304.600 378.400 C 305.578 378.400,306.000 378.219,306.000 377.800 C 306.000 377.400,306.400 377.200,307.200 377.200 C 308.000 377.200,308.400 377.000,308.400 376.600 C 308.400 376.200,308.800 376.000,309.600 376.000 C 310.400 376.000,310.800 375.800,310.800 375.400 C 310.800 375.000,311.200 374.800,312.000 374.800 C 312.800 374.800,313.200 374.600,313.200 374.200 C 313.200 373.825,313.579 373.600,314.213 373.600 C 314.769 373.600,315.329 373.330,315.455 373.000 C 315.582 372.670,315.936 372.400,316.243 372.400 C 316.549 372.400,316.800 372.130,316.800 371.800 C 316.800 371.425,317.179 371.200,317.813 371.200 C 318.369 371.200,318.929 370.930,319.055 370.600 C 319.182 370.270,319.542 370.000,319.855 370.000 C 320.169 370.000,320.521 369.750,320.638 369.445 C 320.755 369.140,321.380 368.784,322.026 368.655 C 322.709 368.518,323.200 368.165,323.200 367.810 C 323.200 367.475,323.470 367.200,323.800 367.200 C 324.130 367.200,324.400 366.930,324.400 366.600 C 324.400 366.225,324.779 366.000,325.413 366.000 C 325.969 366.000,326.529 365.730,326.655 365.400 C 326.782 365.070,327.136 364.800,327.443 364.800 C 327.749 364.800,328.000 364.530,328.000 364.200 C 328.000 363.870,328.270 363.600,328.600 363.600 C 328.930 363.600,329.200 363.330,329.200 363.000 C 329.200 362.600,329.600 362.400,330.400 362.400 C 331.200 362.400,331.600 362.200,331.600 361.800 C 331.600 361.470,331.870 361.200,332.200 361.200 C 332.530 361.200,332.800 360.930,332.800 360.600 C 332.800 360.270,333.070 360.000,333.400 360.000 C 333.730 360.000,334.000 359.730,334.000 359.400 C 334.000 359.070,334.270 358.800,334.600 358.800 C 334.930 358.800,335.200 358.530,335.200 358.200 C 335.200 357.825,335.579 357.600,336.213 357.600 C 336.769 357.600,337.329 357.330,337.455 357.000 C 337.582 356.670,337.877 356.400,338.111 356.400 C 338.346 356.400,339.313 355.590,340.262 354.600 C 341.210 353.610,342.170 352.800,342.393 352.800 C 342.617 352.800,342.800 352.440,342.800 352.000 C 342.800 351.556,343.067 351.200,343.400 351.200 C 343.730 351.200,344.000 350.930,344.000 350.600 C 344.000 350.270,344.270 350.000,344.600 350.000 C 344.930 350.000,345.200 349.730,345.200 349.400 C 345.200 349.070,345.470 348.800,345.800 348.800 C 346.130 348.800,346.400 348.530,346.400 348.200 C 346.400 347.870,346.670 347.600,347.000 347.600 C 347.330 347.600,347.600 347.330,347.600 347.000 C 347.600 346.670,347.870 346.400,348.200 346.400 C 348.530 346.400,348.800 346.130,348.800 345.800 C 348.800 345.470,349.070 345.200,349.400 345.200 C 349.730 345.200,350.000 344.930,350.000 344.600 C 350.000 344.270,350.270 344.000,350.600 344.000 C 350.930 344.000,351.200 343.730,351.200 343.400 C 351.200 343.067,351.556 342.800,352.000 342.800 C 352.440 342.800,352.800 342.620,352.800 342.400 C 352.800 341.881,354.281 340.400,354.800 340.400 C 355.020 340.400,355.200 340.130,355.200 339.800 C 355.200 339.470,355.386 339.200,355.613 339.200 C 355.839 339.200,356.141 338.899,356.282 338.531 C 356.610 337.676,357.879 336.400,358.400 336.400 C 358.620 336.400,358.800 335.860,358.800 335.200 C 358.800 334.400,359.000 334.000,359.400 334.000 C 359.730 334.000,360.000 333.730,360.000 333.400 C 360.000 333.070,360.270 332.800,360.600 332.800 C 360.930 332.800,361.200 332.530,361.200 332.200 C 361.200 331.870,361.470 331.600,361.800 331.600 C 362.200 331.600,362.400 331.200,362.400 330.400 C 362.400 329.600,362.600 329.200,363.000 329.200 C 363.330 329.200,363.600 328.930,363.600 328.600 C 363.600 328.270,363.870 328.000,364.200 328.000 C 364.530 328.000,364.800 327.730,364.800 327.400 C 364.800 327.070,365.070 326.800,365.400 326.800 C 365.800 326.800,366.000 326.400,366.000 325.600 C 366.000 324.800,366.200 324.400,366.600 324.400 C 366.930 324.400,367.200 324.151,367.200 323.847 C 367.200 323.542,367.560 323.199,368.000 323.084 C 368.529 322.946,368.800 322.538,368.800 321.880 C 368.800 321.333,369.070 320.782,369.400 320.655 C 369.730 320.529,370.000 320.149,370.000 319.813 C 370.000 319.476,370.270 319.200,370.600 319.200 C 371.000 319.200,371.200 318.800,371.200 318.000 C 371.200 317.200,371.400 316.800,371.800 316.800 C 372.130 316.800,372.400 316.549,372.400 316.243 C 372.400 315.936,372.670 315.582,373.000 315.455 C 373.330 315.329,373.600 314.769,373.600 314.213 C 373.600 313.579,373.825 313.200,374.200 313.200 C 374.600 313.200,374.800 312.800,374.800 312.000 C 374.800 311.200,375.000 310.800,375.400 310.800 C 375.800 310.800,376.000 310.400,376.000 309.600 C 376.000 308.800,376.200 308.400,376.600 308.400 C 376.930 308.400,377.200 308.149,377.200 307.843 C 377.200 307.536,377.470 307.182,377.800 307.055 C 378.151 306.921,378.400 306.321,378.400 305.613 C 378.400 304.801,378.599 304.400,379.000 304.400 C 379.400 304.400,379.600 304.000,379.600 303.200 C 379.600 302.400,379.800 302.000,380.200 302.000 C 380.600 302.000,380.800 301.600,380.800 300.800 C 380.800 300.000,381.000 299.600,381.400 299.600 C 381.844 299.600,382.000 299.133,382.000 297.800 C 382.000 296.467,382.156 296.000,382.600 296.000 C 382.995 296.000,383.200 295.605,383.200 294.847 C 383.200 294.030,383.433 293.632,384.000 293.484 C 384.507 293.351,384.805 292.932,384.813 292.337 C 384.820 291.822,385.090 291.051,385.413 290.624 C 385.736 290.196,386.000 289.251,386.000 288.524 C 386.000 287.614,386.188 287.200,386.600 287.200 C 387.044 287.200,387.200 286.733,387.200 285.400 C 387.200 284.067,387.356 283.600,387.800 283.600 C 388.244 283.600,388.400 283.133,388.400 281.800 C 388.400 280.467,388.556 280.000,389.000 280.000 C 389.444 280.000,389.600 279.533,389.600 278.200 C 389.600 276.867,389.756 276.400,390.200 276.400 C 390.653 276.400,390.800 275.911,390.800 274.400 C 390.800 272.889,390.947 272.400,391.400 272.400 C 391.867 272.400,392.000 271.867,392.000 270.000 C 392.000 268.133,392.133 267.600,392.600 267.600 C 393.080 267.600,393.200 267.000,393.200 264.600 C 393.200 262.200,393.320 261.600,393.800 261.600 C 394.283 261.600,394.400 260.978,394.400 258.400 C 394.400 255.822,394.517 255.200,395.000 255.200 C 395.500 255.200,395.600 254.400,395.600 250.400 C 395.600 246.400,395.700 245.600,396.200 245.600 C 396.725 245.600,396.800 243.222,396.800 226.600 C 396.800 209.978,396.725 207.600,396.200 207.600 C 395.703 207.600,395.600 206.844,395.600 203.200 C 395.600 199.556,395.497 198.800,395.000 198.800 C 394.511 198.800,394.400 198.133,394.400 195.200 C 394.400 192.267,394.289 191.600,393.800 191.600 C 393.328 191.600,393.200 191.044,393.200 189.000 C 393.200 186.956,393.072 186.400,392.600 186.400 C 392.133 186.400,392.000 185.867,392.000 184.000 C 392.000 182.133,391.867 181.600,391.400 181.600 C 390.933 181.600,390.800 181.067,390.800 179.200 C 390.800 177.333,390.667 176.800,390.200 176.800 C 389.755 176.800,389.600 176.332,389.600 174.987 C 389.600 173.745,389.411 173.102,389.000 172.945 C 388.608 172.794,388.400 172.171,388.400 171.145 C 388.400 170.118,388.192 169.495,387.800 169.345 C 387.408 169.194,387.200 168.571,387.200 167.545 C 387.200 166.518,386.992 165.895,386.600 165.745 C 386.258 165.613,386.000 165.017,386.000 164.357 C 386.000 163.595,385.795 163.200,385.400 163.200 C 385.046 163.200,384.798 162.831,384.795 162.300 C 384.785 160.773,384.333 159.600,383.753 159.600 C 383.405 159.600,383.200 159.155,383.200 158.400 C 383.200 157.600,383.000 157.200,382.600 157.200 C 382.181 157.200,382.000 156.778,382.000 155.800 C 382.000 154.822,381.819 154.400,381.400 154.400 C 381.000 154.400,380.800 154.000,380.800 153.200 C 380.800 152.400,380.600 152.000,380.200 152.000 C 379.800 152.000,379.600 151.600,379.600 150.800 C 379.600 150.000,379.400 149.600,379.000 149.600 C 378.600 149.600,378.400 149.200,378.400 148.400 C 378.400 147.600,378.200 147.200,377.800 147.200 C 377.400 147.200,377.200 146.800,377.200 146.000 C 377.200 145.200,377.000 144.800,376.600 144.800 C 376.200 144.800,376.000 144.400,376.000 143.600 C 376.000 142.800,375.800 142.400,375.400 142.400 C 375.000 142.400,374.800 142.000,374.800 141.200 C 374.800 140.400,374.600 140.000,374.200 140.000 C 373.870 140.000,373.600 139.724,373.600 139.387 C 373.600 139.051,373.330 138.671,373.000 138.545 C 372.670 138.418,372.400 137.878,372.400 137.345 C 372.400 136.811,372.130 136.271,371.800 136.145 C 371.470 136.018,371.200 135.524,371.200 135.046 C 371.200 134.569,370.670 133.713,370.021 133.144 C 369.373 132.575,368.724 131.635,368.578 131.055 C 368.432 130.475,368.063 130.000,367.757 130.000 C 367.450 130.000,367.200 129.730,367.200 129.400 C 367.200 129.070,366.930 128.800,366.600 128.800 C 366.270 128.800,366.000 128.530,366.000 128.200 C 366.000 127.870,365.730 127.600,365.400 127.600 C 364.999 127.600,364.800 127.199,364.800 126.387 C 364.800 125.679,364.551 125.079,364.200 124.945 C 363.870 124.818,363.600 124.464,363.600 124.157 C 363.600 123.851,363.330 123.600,363.000 123.600 C 362.670 123.600,362.400 123.330,362.400 123.000 C 362.400 122.670,362.130 122.400,361.800 122.400 C 361.425 122.400,361.200 122.021,361.200 121.387 C 361.200 120.831,360.930 120.271,360.600 120.145 C 360.270 120.018,360.000 119.664,360.000 119.357 C 360.000 119.051,359.730 118.800,359.400 118.800 C 359.070 118.800,358.800 118.530,358.800 118.200 C 358.800 117.870,358.530 117.600,358.200 117.600 C 357.870 117.600,357.600 117.330,357.600 117.000 C 357.600 116.670,357.330 116.400,357.000 116.400 C 356.656 116.400,356.400 116.040,356.400 115.557 C 356.400 114.683,352.449 110.400,351.643 110.400 C 351.400 110.400,351.200 110.040,351.200 109.600 C 351.200 109.160,351.026 108.800,350.813 108.800 C 350.310 108.800,347.600 106.090,347.600 105.587 C 347.600 105.374,347.330 105.200,347.000 105.200 C 346.670 105.200,346.400 104.930,346.400 104.600 C 346.400 104.270,346.130 104.000,345.800 104.000 C 345.470 104.000,345.200 103.730,345.200 103.400 C 345.200 103.070,344.930 102.800,344.600 102.800 C 344.270 102.800,344.000 102.530,344.000 102.200 C 344.000 101.870,343.730 101.600,343.400 101.600 C 343.070 101.600,342.800 101.330,342.800 101.000 C 342.800 100.670,342.575 100.392,342.300 100.383 C 342.025 100.374,341.358 99.834,340.819 99.183 C 340.253 98.500,339.449 98.000,338.919 98.000 C 338.369 98.000,338.000 97.759,338.000 97.400 C 338.000 97.070,337.730 96.800,337.400 96.800 C 337.070 96.800,336.800 96.530,336.800 96.200 C 336.800 95.867,336.444 95.600,336.000 95.600 C 335.556 95.600,335.200 95.333,335.200 95.000 C 335.200 94.670,334.930 94.400,334.600 94.400 C 334.270 94.400,334.000 94.170,334.000 93.889 C 334.000 93.193,332.632 92.073,331.406 91.766 C 330.853 91.627,330.400 91.263,330.400 90.957 C 330.400 90.650,330.130 90.400,329.800 90.400 C 329.470 90.400,329.200 90.130,329.200 89.800 C 329.200 89.470,328.949 89.200,328.643 89.200 C 328.336 89.200,327.982 88.930,327.855 88.600 C 327.729 88.270,327.169 88.000,326.613 88.000 C 325.979 88.000,325.600 87.775,325.600 87.400 C 325.600 87.070,325.349 86.800,325.043 86.800 C 324.736 86.800,324.382 86.530,324.255 86.200 C 324.129 85.870,323.569 85.600,323.013 85.600 C 322.379 85.600,322.000 85.375,322.000 85.000 C 322.000 84.670,321.749 84.400,321.443 84.400 C 321.136 84.400,320.782 84.130,320.655 83.800 C 320.521 83.449,319.921 83.200,319.213 83.200 C 318.401 83.200,318.000 83.001,318.000 82.600 C 318.000 82.270,317.730 82.000,317.400 82.000 C 317.070 82.000,316.800 81.730,316.800 81.400 C 316.800 81.000,316.400 80.800,315.600 80.800 C 314.800 80.800,314.400 80.600,314.400 80.200 C 314.400 79.800,314.000 79.600,313.200 79.600 C 312.400 79.600,312.000 79.400,312.000 79.000 C 312.000 78.670,311.730 78.400,311.400 78.400 C 311.070 78.400,310.800 78.130,310.800 77.800 C 310.800 77.400,310.400 77.200,309.600 77.200 C 308.940 77.200,308.400 77.011,308.400 76.780 C 308.400 76.548,307.782 76.101,307.027 75.786 C 306.272 75.470,305.542 75.029,305.404 74.806 C 305.266 74.583,304.713 74.400,304.176 74.400 C 303.575 74.400,303.200 74.169,303.200 73.800 C 303.200 73.405,302.805 73.200,302.043 73.200 C 301.383 73.200,300.787 72.942,300.655 72.600 C 300.529 72.270,299.989 72.000,299.455 72.000 C 298.922 72.000,298.382 71.730,298.255 71.400 C 298.103 71.004,297.477 70.800,296.413 70.800 C 295.246 70.800,294.800 70.634,294.800 70.200 C 294.800 69.805,294.405 69.600,293.643 69.600 C 292.983 69.600,292.387 69.342,292.255 69.000 C 292.103 68.604,291.477 68.400,290.413 68.400 C 289.246 68.400,288.800 68.234,288.800 67.800 C 288.800 67.381,288.378 67.200,287.400 67.200 C 286.422 67.200,286.000 67.019,286.000 66.600 C 286.000 66.156,285.533 66.000,284.200 66.000 C 282.867 66.000,282.400 65.844,282.400 65.400 C 282.400 64.956,281.933 64.800,280.600 64.800 C 279.267 64.800,278.800 64.644,278.800 64.200 C 278.800 63.758,278.338 63.600,277.043 63.600 C 275.850 63.600,275.212 63.407,275.055 63.000 C 274.887 62.560,274.193 62.400,272.459 62.400 C 270.430 62.400,270.064 62.286,269.884 61.600 C 269.707 60.922,269.338 60.800,267.471 60.800 C 266.122 60.800,265.205 60.615,265.108 60.324 C 265.013 60.040,263.824 59.777,262.175 59.673 C 260.649 59.577,259.045 59.251,258.611 58.949 C 258.080 58.580,256.608 58.400,254.111 58.400 C 251.079 58.400,250.400 58.290,250.400 57.800 C 250.400 57.293,249.449 57.200,244.243 57.200 C 239.139 57.200,238.046 57.097,237.855 56.600 C 237.521 55.729,216.612 55.696,216.120 56.565 " stroke="none" fill="#1c4484" fill-rule="evenodd"></path><path id="path3" d="M57.687 213.126 C 57.337 213.356,57.718 213.626,58.887 213.975 C 60.786 214.542,63.115 215.389,65.114 216.240 C 65.836 216.548,66.619 216.800,66.853 216.800 C 67.087 216.800,67.846 217.048,68.540 217.351 C 69.233 217.654,70.700 218.211,71.800 218.589 C 74.108 219.381,77.835 220.754,79.000 221.242 C 79.440 221.426,80.970 221.953,82.400 222.412 C 83.830 222.871,85.478 223.507,86.062 223.824 C 86.646 224.141,87.390 224.400,87.716 224.400 C 88.042 224.400,88.824 224.669,89.454 224.998 C 90.084 225.326,90.881 225.596,91.224 225.598 C 91.566 225.599,92.196 225.864,92.624 226.187 C 93.051 226.510,93.790 226.780,94.268 226.787 C 94.745 226.794,95.645 227.052,96.268 227.361 C 98.415 228.424,100.429 229.200,101.040 229.200 C 101.377 229.200,102.046 229.416,102.526 229.680 C 103.429 230.177,108.736 232.120,111.200 232.856 C 111.970 233.086,112.771 233.438,112.980 233.637 C 113.189 233.837,113.612 234.000,113.920 234.000 C 114.227 234.000,115.046 234.250,115.740 234.554 C 116.433 234.859,118.170 235.510,119.600 236.000 C 121.030 236.490,122.767 237.141,123.460 237.446 C 124.154 237.750,125.099 238.000,125.560 238.000 C 126.022 238.000,126.400 238.172,126.400 238.382 C 126.400 238.592,127.075 238.887,127.900 239.039 C 128.725 239.190,129.755 239.558,130.189 239.857 C 130.623 240.156,131.343 240.406,131.789 240.413 C 132.235 240.420,132.949 240.690,133.376 241.013 C 133.804 241.336,134.524 241.606,134.976 241.613 C 135.429 241.620,136.149 241.890,136.576 242.213 C 137.004 242.536,137.814 242.806,138.376 242.813 C 138.939 242.820,139.749 243.090,140.176 243.413 C 140.604 243.736,141.324 244.006,141.776 244.013 C 142.229 244.020,142.949 244.290,143.376 244.613 C 143.804 244.936,144.490 245.200,144.903 245.200 C 145.315 245.200,146.046 245.416,146.526 245.680 C 147.556 246.246,153.229 248.296,155.111 248.782 C 155.833 248.968,156.643 249.289,156.911 249.494 C 157.180 249.699,158.616 250.268,160.103 250.759 C 161.590 251.249,163.300 251.908,163.903 252.223 C 164.506 252.538,165.394 252.796,165.876 252.798 C 166.358 252.799,166.855 252.966,166.981 253.169 C 167.106 253.372,167.759 253.659,168.432 253.807 C 169.104 253.955,170.137 254.327,170.727 254.635 C 171.317 254.943,172.205 255.196,172.700 255.198 C 173.195 255.199,173.600 255.372,173.600 255.582 C 173.600 255.792,174.275 256.087,175.100 256.239 C 175.925 256.390,176.955 256.758,177.389 257.057 C 177.823 257.356,178.554 257.600,179.013 257.600 C 179.472 257.600,180.196 257.864,180.624 258.187 C 181.051 258.510,181.771 258.780,182.224 258.787 C 182.676 258.794,183.396 259.064,183.824 259.387 C 184.251 259.710,184.971 259.980,185.424 259.987 C 185.876 259.994,186.596 260.264,187.024 260.587 C 187.451 260.910,188.261 261.180,188.824 261.187 C 189.386 261.194,190.196 261.464,190.624 261.787 C 191.051 262.110,191.670 262.381,192.000 262.390 C 192.330 262.398,193.116 262.674,193.746 263.002 C 194.376 263.331,195.191 263.600,195.557 263.600 C 195.923 263.600,196.577 263.847,197.011 264.149 C 197.445 264.451,198.397 264.828,199.127 264.987 C 199.857 265.145,200.937 265.527,201.527 265.835 C 202.117 266.143,202.904 266.396,203.276 266.398 C 203.648 266.399,204.054 266.564,204.178 266.765 C 204.303 266.966,205.123 267.252,206.002 267.400 C 206.881 267.549,207.600 267.826,207.600 268.017 C 207.600 268.208,208.275 268.487,209.100 268.639 C 209.925 268.790,210.955 269.158,211.389 269.457 C 211.823 269.756,212.543 270.006,212.989 270.013 C 213.435 270.020,214.149 270.290,214.576 270.613 C 215.004 270.936,215.859 271.200,216.476 271.200 C 217.094 271.200,217.600 271.372,217.600 271.582 C 217.600 271.792,218.275 272.087,219.100 272.239 C 219.925 272.390,220.955 272.758,221.389 273.057 C 221.823 273.356,222.543 273.606,222.989 273.613 C 223.435 273.620,224.149 273.890,224.576 274.213 C 225.004 274.536,225.724 274.806,226.176 274.813 C 226.629 274.820,227.349 275.090,227.776 275.413 C 228.204 275.736,228.934 276.000,229.400 276.000 C 229.866 276.000,230.596 276.264,231.024 276.587 C 231.451 276.910,232.171 277.180,232.624 277.187 C 233.076 277.194,233.796 277.464,234.224 277.787 C 234.651 278.110,235.450 278.386,236.000 278.400 C 236.550 278.414,237.349 278.690,237.776 279.013 C 238.204 279.336,238.834 279.601,239.176 279.602 C 239.519 279.604,240.283 279.857,240.873 280.165 C 241.463 280.473,242.510 280.849,243.200 281.000 C 243.890 281.151,244.937 281.527,245.527 281.835 C 246.117 282.143,246.904 282.396,247.276 282.398 C 247.648 282.399,248.064 282.580,248.200 282.800 C 248.336 283.020,248.752 283.206,249.124 283.214 C 249.496 283.221,250.520 283.575,251.400 284.000 C 252.280 284.425,253.204 284.779,253.454 284.786 C 253.704 284.794,254.424 285.069,255.054 285.398 C 255.684 285.726,256.583 285.996,257.051 285.998 C 257.519 285.999,258.126 286.270,258.400 286.600 C 258.674 286.930,259.371 287.206,259.949 287.213 C 260.527 287.220,261.349 287.490,261.776 287.813 C 262.204 288.136,262.924 288.406,263.376 288.413 C 263.829 288.420,264.549 288.690,264.976 289.013 C 265.404 289.336,266.236 289.600,266.827 289.600 C 267.418 289.600,268.110 289.850,268.364 290.156 C 268.618 290.463,269.315 290.802,269.913 290.911 C 271.252 291.154,273.426 291.905,274.932 292.644 C 275.555 292.950,276.478 293.200,276.983 293.200 C 277.489 293.200,278.126 293.470,278.400 293.800 C 278.674 294.130,279.292 294.400,279.773 294.400 C 280.254 294.400,280.996 294.664,281.424 294.987 C 281.851 295.310,282.560 295.586,283.000 295.601 C 283.440 295.615,284.520 295.975,285.400 296.400 C 286.280 296.825,287.204 297.179,287.454 297.186 C 287.704 297.194,288.424 297.469,289.054 297.798 C 289.684 298.126,290.504 298.396,290.876 298.398 C 291.248 298.399,291.654 298.564,291.778 298.765 C 291.903 298.966,292.723 299.252,293.602 299.400 C 294.481 299.549,295.200 299.832,295.200 300.030 C 295.200 300.228,295.924 300.506,296.809 300.648 C 297.694 300.789,298.514 301.061,298.632 301.253 C 298.985 301.823,301.600 301.668,301.600 301.076 C 301.600 300.267,300.429 298.831,300.413 299.620 C 300.406 299.961,300.616 300.456,300.880 300.720 C 301.575 301.415,300.371 301.356,298.932 300.624 C 296.823 299.552,294.882 298.800,294.225 298.800 C 293.866 298.800,293.173 298.545,292.686 298.233 C 292.199 297.921,291.350 297.606,290.800 297.533 C 290.250 297.460,289.562 297.175,289.271 296.900 C 288.981 296.625,288.342 296.400,287.851 296.400 C 287.361 296.400,286.766 296.206,286.529 295.969 C 286.292 295.732,285.491 295.387,284.749 295.203 C 284.007 295.020,282.410 294.485,281.200 294.015 C 277.117 292.431,275.805 291.953,274.400 291.538 C 273.630 291.311,272.829 290.962,272.620 290.763 C 272.411 290.563,271.961 290.399,271.620 290.398 C 271.279 290.396,270.484 290.126,269.854 289.798 C 269.224 289.469,268.508 289.200,268.262 289.200 C 267.799 289.200,263.925 287.773,262.705 287.153 C 262.323 286.959,261.783 286.794,261.505 286.786 C 261.227 286.779,260.280 286.425,259.400 286.000 C 258.520 285.575,257.431 285.221,256.980 285.214 C 256.529 285.206,255.989 285.048,255.780 284.862 C 255.571 284.676,254.230 284.122,252.800 283.630 C 251.370 283.138,249.841 282.541,249.403 282.304 C 248.965 282.066,248.065 281.736,247.403 281.571 C 246.741 281.405,245.210 280.876,244.000 280.395 C 242.790 279.914,241.350 279.422,240.800 279.302 C 240.250 279.182,239.445 278.840,239.011 278.542 C 238.577 278.244,237.852 278.000,237.400 278.000 C 236.948 278.000,236.223 277.756,235.789 277.458 C 235.355 277.160,234.550 276.818,234.000 276.698 C 233.450 276.578,232.010 276.088,230.800 275.608 C 229.590 275.129,227.970 274.554,227.200 274.331 C 226.430 274.108,225.629 273.762,225.420 273.563 C 225.211 273.363,224.660 273.200,224.196 273.200 C 223.733 273.200,223.004 272.936,222.576 272.613 C 222.149 272.290,221.530 272.019,221.200 272.010 C 220.870 272.002,220.117 271.743,219.527 271.435 C 218.937 271.127,217.890 270.751,217.200 270.600 C 216.510 270.449,215.463 270.073,214.873 269.765 C 214.283 269.457,213.521 269.204,213.180 269.202 C 212.839 269.201,212.389 269.046,212.180 268.857 C 211.971 268.669,210.450 268.092,208.800 267.576 C 207.150 267.060,205.445 266.405,205.011 266.119 C 204.577 265.834,203.848 265.600,203.391 265.600 C 202.934 265.600,202.389 265.437,202.180 265.237 C 201.971 265.038,201.170 264.692,200.400 264.469 C 197.978 263.769,196.120 263.076,192.286 261.444 C 191.454 261.090,190.455 260.800,190.066 260.800 C 189.678 260.800,189.189 260.631,188.980 260.426 C 188.771 260.220,187.250 259.598,185.600 259.044 C 180.207 257.234,179.010 256.800,178.305 256.397 C 177.923 256.179,177.411 256.000,177.166 256.000 C 176.921 256.000,176.154 255.751,175.460 255.446 C 174.767 255.142,172.310 254.224,170.000 253.406 C 167.690 252.589,165.440 251.763,165.000 251.571 C 164.176 251.211,162.894 250.757,158.400 249.234 C 156.970 248.749,155.322 248.093,154.738 247.776 C 154.154 247.459,153.334 247.200,152.915 247.200 C 152.496 247.200,151.804 246.936,151.376 246.613 C 150.949 246.290,150.235 246.020,149.789 246.013 C 149.343 246.006,148.623 245.756,148.189 245.458 C 147.755 245.160,146.950 244.815,146.400 244.691 C 145.031 244.382,141.952 243.281,141.105 242.797 C 140.723 242.579,140.211 242.400,139.966 242.400 C 139.721 242.400,138.954 242.144,138.260 241.831 C 137.567 241.518,135.740 240.860,134.200 240.368 C 132.660 239.876,131.229 239.322,131.020 239.136 C 130.811 238.951,130.388 238.800,130.080 238.800 C 129.773 238.800,128.954 238.550,128.260 238.246 C 127.567 237.941,125.830 237.295,124.400 236.811 C 122.970 236.327,121.322 235.677,120.738 235.366 C 120.154 235.055,119.387 234.800,119.033 234.800 C 118.679 234.800,118.077 234.621,117.695 234.403 C 116.839 233.914,113.752 232.812,112.400 232.514 C 111.850 232.392,111.219 232.151,110.997 231.978 C 110.548 231.627,107.650 230.528,105.800 230.007 C 105.140 229.821,103.610 229.280,102.400 228.805 C 101.190 228.329,99.750 227.787,99.200 227.600 C 98.650 227.413,97.210 226.881,96.000 226.417 C 94.790 225.954,92.450 225.122,90.800 224.570 C 89.150 224.017,87.524 223.416,87.187 223.233 C 86.850 223.051,85.997 222.775,85.291 222.620 C 84.586 222.465,83.906 222.172,83.781 221.969 C 83.655 221.766,83.276 221.600,82.937 221.600 C 82.598 221.600,81.754 221.350,81.060 221.046 C 80.367 220.741,78.630 220.090,77.200 219.600 C 75.770 219.110,74.033 218.459,73.340 218.154 C 72.646 217.850,71.827 217.600,71.520 217.600 C 71.212 217.600,70.789 217.437,70.580 217.237 C 70.371 217.038,69.570 216.687,68.800 216.459 C 68.030 216.231,65.600 215.391,63.400 214.593 C 58.224 212.716,58.287 212.732,57.687 213.126 " stroke="none" fill="#7c748c" fill-rule="evenodd"></path><path id="path4" d="M212.943 57.805 C 212.569 58.780,213.639 62.858,214.803 64.895 C 215.021 65.277,215.200 65.912,215.200 66.306 C 215.200 66.700,215.434 67.377,215.719 67.811 C 216.005 68.245,216.669 69.950,217.196 71.600 C 217.723 73.250,218.388 75.050,218.674 75.600 C 218.961 76.150,219.196 76.904,219.198 77.276 C 219.199 77.648,219.366 78.055,219.569 78.181 C 219.772 78.306,220.065 78.986,220.220 79.691 C 220.375 80.397,220.644 81.250,220.819 81.587 C 220.993 81.924,221.528 83.370,222.007 84.800 C 222.486 86.230,223.036 87.760,223.228 88.200 C 223.830 89.576,224.856 92.556,225.086 93.600 C 225.208 94.150,225.461 94.796,225.649 95.036 C 225.838 95.276,226.455 96.891,227.021 98.625 C 227.587 100.359,228.195 101.963,228.371 102.189 C 228.548 102.415,228.789 103.050,228.906 103.600 C 229.024 104.150,229.512 105.590,229.992 106.800 C 230.471 108.010,231.048 109.630,231.273 110.400 C 231.499 111.170,231.810 111.980,231.964 112.200 C 232.119 112.420,232.675 113.950,233.199 115.600 C 233.724 117.250,234.388 119.050,234.674 119.600 C 234.961 120.150,235.196 120.904,235.198 121.276 C 235.199 121.648,235.380 122.064,235.600 122.200 C 235.820 122.336,236.001 122.752,236.002 123.124 C 236.004 123.496,236.257 124.283,236.565 124.873 C 236.873 125.463,237.255 126.543,237.413 127.273 C 237.572 128.003,237.949 128.955,238.251 129.389 C 238.553 129.823,238.806 130.543,238.813 130.989 C 238.820 131.435,239.090 132.149,239.413 132.576 C 239.736 133.004,240.000 133.733,240.000 134.196 C 240.000 134.660,240.163 135.211,240.363 135.420 C 240.562 135.629,240.908 136.430,241.131 137.200 C 241.354 137.970,241.926 139.590,242.403 140.800 C 242.879 142.010,243.416 143.590,243.595 144.311 C 243.774 145.033,244.095 145.843,244.307 146.111 C 244.519 146.380,244.789 147.050,244.906 147.600 C 245.024 148.150,245.512 149.590,245.990 150.800 C 246.468 152.010,247.024 153.540,247.224 154.200 C 247.424 154.860,247.753 155.760,247.955 156.200 C 248.157 156.640,248.729 158.170,249.226 159.600 C 249.723 161.030,250.260 162.380,250.419 162.600 C 250.578 162.820,250.835 163.597,250.992 164.327 C 251.148 165.057,251.527 166.137,251.835 166.727 C 252.143 167.317,252.396 168.104,252.398 168.476 C 252.399 168.848,252.560 169.251,252.755 169.372 C 252.950 169.493,253.235 170.259,253.388 171.075 C 253.541 171.891,253.921 172.923,254.233 173.369 C 254.545 173.814,254.800 174.577,254.800 175.065 C 254.800 175.553,254.966 176.055,255.169 176.181 C 255.372 176.306,255.659 176.959,255.807 177.632 C 255.955 178.304,256.327 179.337,256.635 179.927 C 256.943 180.517,257.196 181.300,257.198 181.668 C 257.199 182.035,257.452 182.845,257.761 183.468 C 258.865 185.699,259.600 187.639,259.600 188.325 C 259.600 188.708,259.844 189.377,260.142 189.811 C 260.440 190.245,260.782 191.050,260.902 191.600 C 261.022 192.150,261.512 193.590,261.990 194.800 C 262.468 196.010,263.024 197.540,263.224 198.200 C 263.424 198.860,263.753 199.760,263.954 200.200 C 264.155 200.640,264.983 202.890,265.793 205.200 C 266.603 207.510,267.431 209.713,267.633 210.095 C 267.835 210.477,268.006 211.017,268.014 211.295 C 268.021 211.573,268.375 212.520,268.800 213.400 C 269.225 214.280,269.579 215.394,269.586 215.876 C 269.594 216.358,269.764 216.854,269.965 216.978 C 270.166 217.102,270.818 218.736,271.414 220.609 C 272.011 222.481,272.656 224.111,272.849 224.230 C 273.042 224.350,273.200 224.966,273.200 225.600 C 273.200 226.234,273.362 226.853,273.559 226.975 C 273.757 227.097,274.395 228.674,274.977 230.479 C 275.560 232.285,276.173 233.950,276.341 234.181 C 276.508 234.411,277.066 235.950,277.580 237.600 C 278.094 239.250,278.669 240.771,278.857 240.980 C 279.046 241.189,279.200 241.701,279.200 242.118 C 279.200 242.535,279.455 243.354,279.766 243.938 C 280.077 244.522,280.727 246.170,281.211 247.600 C 281.695 249.030,282.341 250.767,282.646 251.460 C 282.950 252.154,283.200 252.998,283.200 253.337 C 283.200 253.676,283.366 254.055,283.569 254.181 C 283.772 254.306,284.065 254.986,284.220 255.691 C 284.375 256.397,284.644 257.250,284.819 257.587 C 284.993 257.924,285.528 259.370,286.007 260.800 C 286.486 262.230,287.036 263.760,287.228 264.200 C 287.830 265.576,288.856 268.556,289.086 269.600 C 289.208 270.150,289.461 270.796,289.649 271.036 C 289.838 271.276,290.455 272.891,291.021 274.625 C 291.587 276.359,292.195 277.963,292.371 278.189 C 292.548 278.415,292.789 279.050,292.906 279.600 C 293.024 280.150,293.514 281.590,293.995 282.800 C 294.476 284.010,295.016 285.590,295.195 286.311 C 295.374 287.033,295.684 287.843,295.883 288.111 C 296.082 288.380,296.675 289.950,297.199 291.600 C 297.724 293.250,298.388 295.050,298.674 295.600 C 298.961 296.150,299.196 296.904,299.198 297.276 C 299.199 297.648,299.380 298.064,299.600 298.200 C 300.134 298.530,300.114 300.400,299.576 300.400 C 299.343 300.400,299.264 300.580,299.400 300.800 C 299.536 301.020,300.019 301.200,300.473 301.200 C 301.158 301.200,301.214 301.099,300.804 300.605 C 300.533 300.278,300.420 299.726,300.553 299.378 C 300.686 299.031,300.437 297.958,299.998 296.995 C 299.559 296.032,299.200 295.052,299.200 294.817 C 299.200 294.581,299.034 294.077,298.832 293.695 C 298.630 293.313,298.069 291.830,297.587 290.400 C 297.104 288.970,296.459 287.233,296.154 286.540 C 295.850 285.846,295.600 285.079,295.600 284.834 C 295.600 284.589,295.421 284.077,295.203 283.695 C 294.719 282.848,293.618 279.769,293.309 278.400 C 293.185 277.850,292.840 277.045,292.542 276.611 C 292.244 276.177,291.999 275.547,291.998 275.211 C 291.996 274.875,291.726 274.084,291.398 273.454 C 291.069 272.824,290.800 272.009,290.800 271.643 C 290.800 271.277,290.566 270.623,290.281 270.189 C 289.995 269.755,289.340 268.050,288.824 266.400 C 288.308 264.750,287.731 263.229,287.543 263.020 C 287.354 262.811,287.200 262.260,287.200 261.796 C 287.200 261.333,286.936 260.604,286.613 260.176 C 286.290 259.749,286.019 259.130,286.010 258.800 C 286.002 258.470,285.726 257.684,285.398 257.054 C 285.069 256.424,284.799 255.614,284.798 255.254 C 284.796 254.894,284.532 254.096,284.211 253.480 C 283.889 252.864,283.449 251.784,283.232 251.080 C 282.572 248.937,280.593 243.426,280.332 243.000 C 280.196 242.780,279.901 241.970,279.675 241.200 C 279.448 240.430,278.871 238.810,278.392 237.600 C 277.912 236.390,277.424 234.950,277.306 234.400 C 277.189 233.850,276.939 233.204,276.751 232.964 C 276.562 232.724,275.965 231.194,275.424 229.564 C 274.882 227.934,274.056 225.610,273.588 224.400 C 273.120 223.190,272.554 221.570,272.331 220.800 C 272.108 220.030,271.762 219.229,271.563 219.020 C 271.363 218.811,271.200 218.266,271.200 217.809 C 271.200 217.352,270.966 216.623,270.681 216.189 C 270.395 215.755,269.731 214.050,269.204 212.400 C 268.677 210.750,268.012 208.950,267.726 208.400 C 267.439 207.850,267.204 207.096,267.202 206.724 C 267.201 206.352,267.020 205.936,266.800 205.800 C 266.580 205.664,266.399 205.248,266.398 204.876 C 266.396 204.504,266.143 203.717,265.835 203.127 C 265.527 202.537,265.148 201.457,264.992 200.727 C 264.835 199.997,264.567 199.220,264.395 199.000 C 264.224 198.780,263.899 197.970,263.673 197.200 C 263.448 196.430,262.871 194.810,262.392 193.600 C 261.912 192.390,261.424 190.950,261.306 190.400 C 261.189 189.850,260.939 189.204,260.751 188.964 C 260.562 188.724,259.962 187.194,259.417 185.564 C 258.365 182.421,257.760 180.751,256.389 177.200 C 255.922 175.990,255.376 174.460,255.176 173.800 C 254.976 173.140,254.647 172.240,254.445 171.800 C 254.243 171.360,253.680 169.830,253.194 168.400 C 252.707 166.970,252.059 165.233,251.754 164.540 C 251.450 163.846,251.200 163.079,251.200 162.834 C 251.200 162.589,251.034 162.077,250.832 161.695 C 250.630 161.313,250.072 159.830,249.593 158.400 C 249.114 156.970,248.557 155.440,248.355 155.000 C 248.153 154.560,247.824 153.660,247.624 153.000 C 247.424 152.340,246.868 150.810,246.390 149.600 C 245.912 148.390,245.424 146.950,245.306 146.400 C 245.189 145.850,244.948 145.215,244.771 144.989 C 244.595 144.763,243.987 143.159,243.421 141.425 C 242.855 139.691,242.238 138.076,242.049 137.836 C 241.861 137.596,241.608 136.950,241.486 136.400 C 241.204 135.119,240.098 131.983,239.648 131.187 C 239.458 130.850,239.175 129.997,239.020 129.291 C 238.865 128.586,238.572 127.906,238.369 127.781 C 238.166 127.655,237.999 127.248,237.998 126.876 C 237.996 126.504,237.726 125.684,237.398 125.054 C 237.069 124.424,236.800 123.708,236.800 123.462 C 236.800 123.034,235.678 119.994,234.540 117.340 C 234.243 116.646,234.000 115.802,234.000 115.463 C 234.000 115.124,233.840 114.749,233.645 114.628 C 233.450 114.507,233.165 113.741,233.012 112.925 C 232.859 112.109,232.479 111.077,232.167 110.631 C 231.855 110.186,231.600 109.448,231.600 108.991 C 231.600 108.534,231.437 107.989,231.237 107.780 C 231.038 107.571,230.692 106.770,230.469 106.000 C 230.246 105.230,229.680 103.610,229.212 102.400 C 227.458 97.866,227.137 96.967,226.812 95.689 C 226.629 94.967,226.316 94.157,226.117 93.889 C 225.918 93.620,225.334 92.050,224.820 90.400 C 224.306 88.750,223.731 87.229,223.543 87.020 C 223.354 86.811,223.200 86.260,223.200 85.796 C 223.200 85.333,222.936 84.604,222.613 84.176 C 222.290 83.749,222.019 83.130,222.010 82.800 C 222.002 82.470,221.743 81.717,221.435 81.127 C 221.127 80.537,220.751 79.490,220.600 78.800 C 220.449 78.110,220.073 77.063,219.765 76.473 C 219.457 75.883,219.204 75.196,219.202 74.946 C 219.201 74.696,218.931 73.976,218.602 73.346 C 218.274 72.716,218.004 71.896,218.002 71.524 C 218.001 71.152,217.840 70.749,217.645 70.628 C 217.450 70.507,217.164 69.732,217.010 68.904 C 216.855 68.077,216.547 67.180,216.325 66.911 C 216.103 66.643,215.774 65.833,215.595 65.111 C 215.416 64.390,214.867 62.810,214.375 61.600 C 213.883 60.390,213.462 58.905,213.440 58.300 C 213.395 57.052,213.277 56.935,212.943 57.805 " stroke="none" fill="#7c84ac" fill-rule="evenodd"></path></g></svg>